<?xml version="1.0" encoding="UTF-8" standalone="no"?>
<!-- Created with Inkscape (http://www.inkscape.org/) -->
<svg
   xmlns:dc="http://purl.org/dc/elements/1.1/"
   xmlns:cc="http://creativecommons.org/ns#"
   xmlns:rdf="http://www.w3.org/1999/02/22-rdf-syntax-ns#"
   xmlns:svg="http://www.w3.org/2000/svg"
   xmlns="http://www.w3.org/2000/svg"
   xmlns:xlink="http://www.w3.org/1999/xlink"
   xmlns:sodipodi="http://sodipodi.sourceforge.net/DTD/sodipodi-0.dtd"
   xmlns:inkscape="http://www.inkscape.org/namespaces/inkscape"
   version="1.0"
   width="16"
   height="16"
   id="svg3251"
   sodipodi:version="0.32"
   inkscape:version="0.46"
   sodipodi:docname="autocheckerror.svg"
   inkscape:output_extension="org.inkscape.output.svg.inkscape"
   inkscape:export-filename="/home/alberto/.gvfs/sftp en 192.168.92.133/var/www/htdocs/repo/icons/source/autocheckerror.png"
   inkscape:export-xdpi="180"
   inkscape:export-ydpi="180">
  <metadata
     id="metadata25">
    <rdf:RDF>
      <cc:Work
         rdf:about="">
        <dc:format>image/svg+xml</dc:format>
        <dc:type
           rdf:resource="http://purl.org/dc/dcmitype/StillImage" />
      </cc:Work>
    </rdf:RDF>
  </metadata>
  <sodipodi:namedview
     inkscape:window-height="739"
     inkscape:window-width="1366"
     inkscape:pageshadow="2"
     inkscape:pageopacity="0.0"
     guidetolerance="10.0"
     gridtolerance="10.0"
     objecttolerance="10.0"
     borderopacity="1.0"
     bordercolor="#666666"
     pagecolor="#ffffff"
     id="base"
     showgrid="false"
     inkscape:zoom="30.875"
     inkscape:cx="8"
     inkscape:cy="7.8434548"
     inkscape:window-x="0"
     inkscape:window-y="0"
     inkscape:current-layer="svg3251" />
  <defs
     id="defs3253">
    <inkscape:perspective
       sodipodi:type="inkscape:persp3d"
       inkscape:vp_x="0 : 8 : 1"
       inkscape:vp_y="0 : 1000 : 0"
       inkscape:vp_z="16 : 8 : 1"
       inkscape:persp3d-origin="8 : 5.3333333 : 1"
       id="perspective27" />
    <linearGradient
       id="linearGradient4873">
      <stop
         id="stop4875"
         style="stop-color:white;stop-opacity:1"
         offset="0" />
      <stop
         id="stop4877"
         style="stop-color:white;stop-opacity:0"
         offset="1" />
    </linearGradient>
    <linearGradient
       x1="63.397362"
       y1="-12.489107"
       x2="63.397362"
       y2="5.4675598"
       id="linearGradient2406"
       xlink:href="#linearGradient4873"
       gradientUnits="userSpaceOnUse"
       gradientTransform="matrix(0.7432394,0,0,0.7432224,-38.229789,10.609333)" />
    <linearGradient
       id="linearGradient2490">
      <stop
         id="stop2492"
         style="stop-color:#791235;stop-opacity:1"
         offset="0" />
      <stop
         id="stop2494"
         style="stop-color:#dd3b27;stop-opacity:1"
         offset="1" />
    </linearGradient>
    <linearGradient
       x1="18.379412"
       y1="44.980297"
       x2="18.379412"
       y2="3.0816143"
       id="linearGradient2411"
       xlink:href="#linearGradient2490"
       gradientUnits="userSpaceOnUse"
       gradientTransform="matrix(0.3685738,0,0,0.3685738,-0.84577,-0.8457701)" />
    <linearGradient
       id="linearGradient3242">
      <stop
         id="stop3244"
         style="stop-color:#f8b17e;stop-opacity:1"
         offset="0" />
      <stop
         id="stop3246"
         style="stop-color:#e35d4f;stop-opacity:1"
         offset="0.26238" />
      <stop
         id="stop3248"
         style="stop-color:#c6262e;stop-opacity:1"
         offset="0.66093999" />
      <stop
         id="stop3250"
         style="stop-color:#690b54;stop-opacity:1"
         offset="1" />
    </linearGradient>
    <radialGradient
       cx="23.895569"
       cy="3.9900031"
       r="20.397499"
       fx="23.895569"
       fy="3.9900031"
       id="radialGradient2409"
       xlink:href="#linearGradient3242"
       gradientUnits="userSpaceOnUse"
       gradientTransform="matrix(0,0.8796593,-1.1611346,0,12.632931,-21.08413)" />
    <linearGradient
       gradientUnits="userSpaceOnUse"
       xlink:href="#linearGradient3400"
       id="linearGradient3406"
       y2="47.760197"
       x2="20.494444"
       y1="6.0097799"
       x1="20.494444" />
    <linearGradient
       id="linearGradient3400">
      <stop
         offset="0"
         style="stop-color:white;stop-opacity:1"
         id="stop3402" />
      <stop
         offset="1"
         style="stop-color:white;stop-opacity:0"
         id="stop3404" />
    </linearGradient>
    <linearGradient
       gradientTransform="matrix(1.017301,-0.243559,0.243559,1.017301,110.52469,-7.9553513)"
       gradientUnits="userSpaceOnUse"
       xlink:href="#linearGradient2264"
       id="linearGradient2628"
       y2="24.558243"
       x2="-91.513138"
       y1="-5.3878593"
       x1="-84.343536" />
    <linearGradient
       id="linearGradient2264">
      <stop
         offset="0"
         style="stop-color:#d7e866;stop-opacity:1"
         id="stop2266" />
      <stop
         offset="1"
         style="stop-color:#8cab2a;stop-opacity:1"
         id="stop2268" />
    </linearGradient>
    <radialGradient
       gradientTransform="matrix(1,0,0,0.536723,0,16.87306)"
       gradientUnits="userSpaceOnUse"
       xlink:href="#linearGradient8662"
       id="radialGradient1444"
       fy="36.421127"
       fx="24.837126"
       r="15.644737"
       cy="36.421127"
       cx="24.837126" />
    <linearGradient
       id="linearGradient8662">
      <stop
         offset="0"
         style="stop-color:black;stop-opacity:1"
         id="stop8664" />
      <stop
         offset="1"
         style="stop-color:black;stop-opacity:0"
         id="stop8666" />
    </linearGradient>
    <inkscape:perspective
       id="perspective2568"
       inkscape:persp3d-origin="24 : 16 : 1"
       inkscape:vp_z="48 : 24 : 1"
       inkscape:vp_y="0 : 1000 : 0"
       inkscape:vp_x="0 : 24 : 1"
       sodipodi:type="inkscape:persp3d" />
  </defs>
  <g
     id="layer1">
    <g
       id="g3275">
      <path
         d="m 8.0000011,0.50182787 c -4.1372321,0 -7.4981741,3.36093913 -7.4981741,7.49817173 0,4.1372334 3.360942,7.4981754 7.4981741,7.4981724 4.1372309,0 7.4981759,-3.360939 7.4981719,-7.4981724 0,-4.1372326 -3.360941,-7.49817173 -7.4981719,-7.49817173 z"
         id="path2555"
         style="fill:url(#radialGradient2409);fill-opacity:1;stroke:url(#linearGradient2411);stroke-width:1.00365424;stroke-linecap:round;stroke-linejoin:round;stroke-miterlimit:4;stroke-opacity:1;stroke-dasharray:none;stroke-dashoffset:0" />
      <path
         d="M 14.500001,7.9997709 C 14.500001,11.589737 11.589636,14.5 8.0000818,14.5 4.4101984,14.5 1.5000001,11.589705 1.5000001,7.9997709 c 0,-3.5898006 2.9101983,-6.4997695 6.5000817,-6.4997695 3.5895542,0 6.4999192,2.9099689 6.4999192,6.4997695 l 0,0 z"
         id="path2463"
         style="opacity:0.4;fill:none;stroke:url(#linearGradient2406);stroke-width:1;stroke-miterlimit:4;stroke-opacity:1;stroke-dasharray:none" />
    </g>
    <path
       d="M 3,8 C 6.333332,8 9.666664,8 13,8 13,7.333334 13,6.666666 13,6 9.666664,6 6.333332,6 3,6 3,6.666666 3,7.333334 3,8 z"
       id="path3360"
       style="font-size:89.63063812px;font-style:normal;font-variant:normal;font-weight:normal;font-stretch:normal;text-align:start;line-height:125%;writing-mode:lr-tb;text-anchor:start;opacity:0.2;fill:black;fill-opacity:1;stroke:none;font-family:Georgia" />
    <path
       d="m 3,8.9999999 c 3.333332,0 6.666664,0 10,0 0,-0.666666 0,-1.333334 0,-2 -3.333336,0 -6.666668,0 -10,0 0,0.666666 0,1.333334 0,2 z"
       id="path3249"
       style="font-size:89.63063812px;font-style:normal;font-variant:normal;font-weight:normal;font-stretch:normal;text-align:start;line-height:125%;writing-mode:lr-tb;text-anchor:start;fill:white;fill-opacity:1;stroke:none;font-family:Georgia" />
  </g>
  <g
     id="g2583"
     transform="matrix(0.2864696,0,0,0.2493096,3.3457783,4.1454132)">
    <path
       style="opacity:0.20454544;fill:url(#radialGradient1444);fill-opacity:1;fill-rule:evenodd;stroke:none;stroke-width:1;marker:none;visibility:visible;display:inline;overflow:visible"
       id="path8660"
       transform="matrix(1.214466,0,0,0.595458,-6.163846,20.31274)"
       d="M 40.481863,36.421127 C 40.481863,41.058603 33.477476,44.818021 24.837126,44.818021 C 16.196776,44.818021 9.1923885,41.058603 9.1923885,36.421127 C 9.1923885,31.783651 16.196776,28.024233 24.837126,28.024233 C 33.477476,28.024233 40.481863,31.783651 40.481863,36.421127 z" />
    <path
       style="fill:url(#linearGradient2628);fill-opacity:1;fill-rule:nonzero;stroke:#42770c;stroke-width:3.74189115;stroke-linecap:round;stroke-linejoin:round;marker:none;stroke-miterlimit:4;stroke-dasharray:none;stroke-dashoffset:0;stroke-opacity:1;visibility:visible;display:inline;overflow:visible"
       id="path1542"
       d="M 33.706448,5.4818293 C 33.146714,5.4250233 32.590227,5.6991663 32.302637,6.2254762 L 20.049307,28.645074 L 12.17121,22.380993 C 11.469463,21.99754 10.593924,22.244224 10.210468,22.945971 L 6.6775966,27.481715 C 6.2941491,28.183456 6.5521075,29.058732 7.2538495,29.442184 C 7.2538495,29.442184 21.638269,41.322467 21.656017,41.331258 C 21.820486,41.421128 21.992482,41.466351 22.167314,41.488442 C 22.738435,41.560612 23.322909,41.29228 23.61649,40.755009 L 40.141725,10.519399 C 40.525176,9.8176549 40.267222,8.9423801 39.565474,8.558928 L 34.26311,5.6492257 C 34.087671,5.553362 33.893026,5.5007637 33.706448,5.4818293 z" />
    <path
       style="opacity:0.4;fill:none;stroke:url(#linearGradient3406);stroke-width:3.74189115;stroke-linecap:round;stroke-linejoin:round;marker:none;stroke-miterlimit:4;stroke-dasharray:none;stroke-dashoffset:0;stroke-opacity:1;visibility:visible;display:inline;overflow:visible"
       id="path1544"
       d="M 32.938536,7.2012775 L 26.730268,18.60791 L 21.197213,28.668822 C 21.018731,28.849918 21.073368,29.422916 20.294512,29.621788 C 19.755643,29.759383 19.65816,29.558898 19.09034,29.193874 L 12.139784,23.701721 C 11.366484,23.080056 11.390031,23.112356 10.842496,23.664351 L 8.0515824,27.18582 C 7.2997707,27.990492 7.4162235,28.476669 8.3533363,29.076867 C 8.3533363,29.076867 21.43149,39.856922 21.448277,39.86524 C 21.603841,39.95024 21.537477,39.979385 22.206139,40.44338 C 22.635066,40.741017 23.013678,39.795398 23.289574,39.29052 L 39.190779,10.274963 C 39.55113,9.6155282 39.523767,9.624421 38.860008,9.2617466 L 34.11801,6.7472827 C 33.434075,6.3758505 33.430508,6.3800895 32.938536,7.2012775 z" />
  </g>
</svg>
