<?xml version="1.0" encoding="UTF-8" standalone="no"?>
<!-- Created with Inkscape (http://www.inkscape.org/) -->
<svg
   xmlns:dc="http://purl.org/dc/elements/1.1/"
   xmlns:cc="http://creativecommons.org/ns#"
   xmlns:rdf="http://www.w3.org/1999/02/22-rdf-syntax-ns#"
   xmlns:svg="http://www.w3.org/2000/svg"
   xmlns="http://www.w3.org/2000/svg"
   xmlns:xlink="http://www.w3.org/1999/xlink"
   xmlns:sodipodi="http://sodipodi.sourceforge.net/DTD/sodipodi-0.dtd"
   xmlns:inkscape="http://www.inkscape.org/namespaces/inkscape"
   version="1.1"
   width="16"
   height="16"
   id="svg2907"
   sodipodi:version="0.32"
   inkscape:version="0.46"
   sodipodi:docname="package-info.svg"
   inkscape:output_extension="org.inkscape.output.svg.inkscape"
   inkscape:export-filename="/home/alberto/.gvfs/sftp en 192.168.92.133/var/www/htdocs/repo/icons/source/package-info.png"
   inkscape:export-xdpi="135"
   inkscape:export-ydpi="135">
  <metadata
     id="metadata38">
    <rdf:RDF>
      <cc:Work
         rdf:about="">
        <dc:format>image/svg+xml</dc:format>
        <dc:type
           rdf:resource="http://purl.org/dc/dcmitype/StillImage" />
      </cc:Work>
    </rdf:RDF>
  </metadata>
  <sodipodi:namedview
     inkscape:window-height="739"
     inkscape:window-width="1366"
     inkscape:pageshadow="2"
     inkscape:pageopacity="0.0"
     guidetolerance="10.0"
     gridtolerance="10.0"
     objecttolerance="10.0"
     borderopacity="1.0"
     bordercolor="#666666"
     pagecolor="#ffffff"
     id="base"
     showgrid="false"
     inkscape:zoom="30.875"
     inkscape:cx="8"
     inkscape:cy="8.1565452"
     inkscape:window-x="0"
     inkscape:window-y="0"
     inkscape:current-layer="svg2907" />
  <defs
     id="defs2909">
    <inkscape:perspective
       sodipodi:type="inkscape:persp3d"
       inkscape:vp_x="0 : 8 : 1"
       inkscape:vp_y="0 : 1000 : 0"
       inkscape:vp_z="16 : 8 : 1"
       inkscape:persp3d-origin="8 : 5.3333333 : 1"
       id="perspective40" />
    <linearGradient
       id="linearGradient3054">
      <stop
         id="stop3056"
         style="stop-color:white;stop-opacity:1"
         offset="0" />
      <stop
         id="stop3058"
         style="stop-color:white;stop-opacity:1"
         offset="0.29462135" />
      <stop
         id="stop3060"
         style="stop-color:white;stop-opacity:0.6901961"
         offset="0.43371025" />
      <stop
         id="stop3062"
         style="stop-color:white;stop-opacity:0"
         offset="1" />
    </linearGradient>
    <linearGradient
       id="linearGradient3032">
      <stop
         id="stop3034"
         style="stop-color:#dac197;stop-opacity:1"
         offset="0" />
      <stop
         id="stop3036"
         style="stop-color:#c1a581;stop-opacity:1"
         offset="0.28352803" />
      <stop
         id="stop3038"
         style="stop-color:#dbc298;stop-opacity:1"
         offset="0.36018604" />
      <stop
         id="stop3040"
         style="stop-color:#a68b60;stop-opacity:1"
         offset="1" />
    </linearGradient>
    <linearGradient
       id="linearGradient3022">
      <stop
         id="stop3024"
         style="stop-color:#c9af8b;stop-opacity:1"
         offset="0" />
      <stop
         id="stop3026"
         style="stop-color:#ad8757;stop-opacity:1"
         offset="0.27982354" />
      <stop
         id="stop3028"
         style="stop-color:#c2a57f;stop-opacity:1"
         offset="0.3566308" />
      <stop
         id="stop3030"
         style="stop-color:#9d7d53;stop-opacity:1"
         offset="1" />
    </linearGradient>
    <linearGradient
       id="linearGradient3275">
      <stop
         id="stop3277"
         style="stop-color:white;stop-opacity:0"
         offset="0" />
      <stop
         id="stop3283"
         style="stop-color:white;stop-opacity:1"
         offset="0.245" />
      <stop
         id="stop3285"
         style="stop-color:white;stop-opacity:1"
         offset="0.77350003" />
      <stop
         id="stop3279"
         style="stop-color:white;stop-opacity:0"
         offset="1" />
    </linearGradient>
    <linearGradient
       id="linearGradient4559">
      <stop
         id="stop4561"
         style="stop-color:white;stop-opacity:0"
         offset="0" />
      <stop
         id="stop4563"
         style="stop-color:white;stop-opacity:0"
         offset="1" />
    </linearGradient>
    <linearGradient
       x1="44.994774"
       y1="17.5"
       x2="3.0052247"
       y2="17.5"
       id="linearGradient3009"
       xlink:href="#linearGradient3275"
       gradientUnits="userSpaceOnUse"
       gradientTransform="matrix(0.36595005,0,0,0.36097048,-0.7828015,-0.81698)"
       spreadMethod="reflect" />
    <linearGradient
       x1="23.451576"
       y1="30.554907"
       x2="43.00663"
       y2="45.934479"
       id="linearGradient3015"
       xlink:href="#linearGradient4559"
       gradientUnits="userSpaceOnUse"
       gradientTransform="matrix(0.46923034,0,0,0.4240274,-3.0041886,-3.4756141)" />
    <linearGradient
       x1="24.822832"
       y1="15.377745"
       x2="24.996943"
       y2="37.27668"
       id="linearGradient3018"
       xlink:href="#linearGradient3032"
       gradientUnits="userSpaceOnUse"
       gradientTransform="matrix(0.46923034,0,0,0.56212557,-3.0041886,-7.0808391)" />
    <linearGradient
       x1="15.464298"
       y1="7.9756851"
       x2="15.464298"
       y2="45.04248"
       id="linearGradient3020"
       xlink:href="#linearGradient3022"
       gradientUnits="userSpaceOnUse"
       gradientTransform="matrix(0.36595005,0,0,0.36097048,-0.7828015,-1.5613271)" />
    <linearGradient
       x1="26"
       y1="22"
       x2="26"
       y2="8"
       id="linearGradient3052"
       xlink:href="#linearGradient3054"
       gradientUnits="userSpaceOnUse"
       gradientTransform="matrix(0.49999973,0,0,0.49999987,-3.999993,-2.9999993)" />
    <linearGradient
       gradientTransform="matrix(1.5436509,0,0,1.5436158,-80.015712,21.419381)"
       gradientUnits="userSpaceOnUse"
       xlink:href="#linearGradient4873"
       id="linearGradient2685"
       y2="5.4675598"
       x2="63.397362"
       y1="-12.489107"
       x1="63.397362" />
    <linearGradient
       id="linearGradient4873">
      <stop
         offset="0"
         style="stop-color:white;stop-opacity:1"
         id="stop4875" />
      <stop
         offset="1"
         style="stop-color:white;stop-opacity:0"
         id="stop4877" />
    </linearGradient>
    <radialGradient
       gradientTransform="matrix(0,1.7008781,-2.245129,0,24.958071,-40.236051)"
       gradientUnits="userSpaceOnUse"
       xlink:href="#linearGradient3242-187-536"
       id="radialGradient2688"
       fy="3.9900031"
       fx="23.895569"
       r="20.397499"
       cy="3.9900031"
       cx="23.895569" />
    <linearGradient
       id="linearGradient3242-187-536">
      <stop
         offset="0"
         style="stop-color:#8badea;stop-opacity:1"
         id="stop2778" />
      <stop
         offset="0.26238"
         style="stop-color:#6396cd;stop-opacity:1"
         id="stop2780" />
      <stop
         offset="0.66093999"
         style="stop-color:#3b7caf;stop-opacity:1"
         id="stop2782" />
      <stop
         offset="1"
         style="stop-color:#194c70;stop-opacity:1"
         id="stop2784" />
    </linearGradient>
    <linearGradient
       gradientTransform="matrix(0.7126612,0,0,0.7126613,-1.1038706,-1.1038704)"
       gradientUnits="userSpaceOnUse"
       xlink:href="#linearGradient2490-182-124"
       id="linearGradient2690"
       y2="3.0816143"
       x2="18.379412"
       y1="44.980297"
       x1="18.379412" />
    <linearGradient
       id="linearGradient2490-182-124">
      <stop
         offset="0"
         style="stop-color:#1f4b6a;stop-opacity:1"
         id="stop2788" />
      <stop
         offset="1"
         style="stop-color:#4083c2;stop-opacity:1"
         id="stop2790" />
    </linearGradient>
    <radialGradient
       gradientTransform="matrix(1.5058824,0,0,0.37647,-78.305888,26.258824)"
       gradientUnits="userSpaceOnUse"
       xlink:href="#linearGradient8838"
       id="radialGradient2693"
       fy="4.625"
       fx="62.625"
       r="10.625"
       cy="4.625"
       cx="62.625" />
    <linearGradient
       id="linearGradient8838">
      <stop
         offset="0"
         style="stop-color:black;stop-opacity:1"
         id="stop8840" />
      <stop
         offset="1"
         style="stop-color:black;stop-opacity:0"
         id="stop8842" />
    </linearGradient>
    <inkscape:perspective
       id="perspective2513"
       inkscape:persp3d-origin="16 : 10.666667 : 1"
       inkscape:vp_z="32 : 16 : 1"
       inkscape:vp_y="0 : 1000 : 0"
       inkscape:vp_x="0 : 16 : 1"
       sodipodi:type="inkscape:persp3d" />
  </defs>
  <g
     id="layer1">
    <path
       d="m 2.5146738,1.5069219 10.7946932,0 c 0.63016,0 0.913749,-0.103437 1.094759,0.360971 L 15.502611,5.5 l 0,8.523181 c 0,0.560696 0.03767,0.475028 -0.592497,0.475028 l -13.8202288,0 c -0.6301632,0 -0.5924964,0.08566 -0.5924964,-0.475028 l 0,-8.523181 1.098485,-3.6321071 c 0.1759604,-0.455026 0.2886367,-0.360971 0.9188,-0.360971 z"
       id="path2488"
       style="fill:url(#linearGradient3018);fill-opacity:1;fill-rule:nonzero;stroke:url(#linearGradient3020);stroke-width:0.99420077;stroke-linecap:round;stroke-linejoin:miter;stroke-miterlimit:4;stroke-opacity:1;stroke-dasharray:none;stroke-dashoffset:0;marker:none;visibility:visible;display:block;overflow:visible" />
    <path
       d="m 2.8577405,1.8725639 10.1195695,0 c 0.590751,0 0.956367,0.200895 1.203801,0.752996 l 0.852275,2.317329 0,8.3545021 c 0,0.527261 -0.299624,0.792722 -0.890376,0.792722 l -12.3446678,0 c -0.5907508,0 -0.8317226,-0.291963 -0.8317226,-0.819224 l 0,-8.3280001 0.8247823,-2.367013 c 0.1649564,-0.427891 0.4755865,-0.703312 1.0663386,-0.703312 z"
       id="path2490"
       style="opacity:0.50549454;fill:none;stroke:url(#linearGradient3015);stroke-width:0.74211526;stroke-linecap:butt;stroke-linejoin:miter;stroke-miterlimit:4;stroke-opacity:1;stroke-dasharray:none;stroke-dashoffset:0;marker:none;visibility:visible;display:block;overflow:visible" />
    <path
       d="M 7,1 C 7.666667,1 8.333333,1 9,1 9,3.3333343 9,5.6666671 9,8 8.333333,8 7.666667,8 7,8 7,5.6666671 7,3.3333343 7,1 z"
       id="rect3326"
       style="opacity:0.4;fill:url(#linearGradient3052);fill-opacity:1;fill-rule:nonzero;stroke:none;stroke-width:1;marker:none;visibility:visible;display:inline;overflow:visible;enable-background:accumulate" />
    <path
       d="m 0.4999356,5.5 15.0001274,0"
       id="path3273"
       style="opacity:0.4;fill:none;stroke:url(#linearGradient3009);stroke-width:1px;stroke-linecap:square;stroke-linejoin:miter;stroke-opacity:1;display:inline" />
  </g>
  <g
     id="g2534"
     transform="matrix(0.3346932,0,0,0.3404361,5.0740607,4.8080269)">
    <path
       style="opacity:0.3;fill:url(#radialGradient2693);fill-opacity:1;fill-rule:evenodd;stroke:none;stroke-width:0.99999988;marker:none;visibility:visible;display:inline;overflow:visible"
       id="path8836"
       d="M 31.999998,28 C 31.999998,30.209139 24.836553,32 15.999997,32 C 7.1634417,32 -3.2e-06,30.209139 -3.2e-06,28 C -3.2e-06,25.790861 7.1634417,24 15.999997,24 C 24.836553,24 31.999998,25.790861 31.999998,28 L 31.999998,28 L 31.999998,28 z" />
    <path
       style="fill:url(#radialGradient2688);fill-opacity:1;stroke:url(#linearGradient2690);stroke-width:2.97332859;stroke-linecap:round;stroke-linejoin:round;stroke-miterlimit:4;stroke-dasharray:none;stroke-dashoffset:0;stroke-opacity:1"
       id="path2555"
       d="M 16.000001,1.5017975 C 8.0003938,1.5017975 1.5017978,8.0003912 1.5017978,15.999999 C 1.5017978,23.999608 8.0003938,30.498205 16.000001,30.498202 C 23.999606,30.498202 30.49821,23.999608 30.498202,15.999999 C 30.498202,8.0003912 23.999606,1.5017975 16.000001,1.5017975 L 16.000001,1.5017975 z" />
    <path
       style="opacity:0.4;fill:none;stroke:url(#linearGradient2685);stroke-width:2.96250272;stroke-miterlimit:4;stroke-dasharray:none;stroke-opacity:1"
       id="path8655"
       d="M 29.5,15.999522 C 29.5,23.455607 23.455399,29.5 16.000172,29.5 C 8.5442598,29.5 2.5,23.455539 2.5,15.999522 C 2.5,8.5437822 8.5442598,2.5000011 16.000172,2.5000011 C 23.455399,2.5000011 29.5,8.5437822 29.5,15.999522 L 29.5,15.999522 z" />
    <path
       style="font-size:40px;font-style:normal;font-variant:normal;font-weight:bold;font-stretch:normal;text-align:start;line-height:100%;writing-mode:lr-tb;text-anchor:start;opacity:0.2;fill:#000000;fill-opacity:1;stroke:none;font-family:URW Palladio L;-inkscape-font-specification:URW Palladio L Bold"
       id="text3482"
       d="M 11.8,14.787587 C 11.991223,15.307419 12.206458,15.728782 12.664931,15.152626 C 13.233336,14.814439 15.13785,13.332065 14.94728,14.784084 C 14.337456,17.470959 13.595164,20.129578 13.027599,22.82473 C 12.434128,24.300447 13.781784,25.635295 15.188835,24.675629 C 16.684439,24.05908 17.971402,23.054828 19.286181,22.133578 C 19.106788,21.693628 18.98722,21.061643 18.49154,21.636997 C 17.840686,21.932411 16.41915,23.32518 16.155055,22.176458 C 16.701766,19.267058 17.714698,16.465358 18.362182,13.579156 C 18.958035,12.252087 17.98489,10.575287 16.528203,11.673056 C 14.783055,12.433124 13.323653,13.674727 11.8,14.787587 L 11.8,14.787587 z M 18.276807,5.0022796 C 16.49624,4.9077866 15.565298,7.7781103 17.257359,8.5635603 C 18.630116,9.1265413 20.124803,7.7186033 19.789444,6.3117493 C 19.68537,5.5791885 19.02767,4.9776374 18.276808,5.0022796 L 18.276807,5.0022796 L 18.276807,5.0022796 z" />
    <path
       style="font-size:40px;font-style:normal;font-variant:normal;font-weight:bold;font-stretch:normal;text-align:start;line-height:100%;writing-mode:lr-tb;text-anchor:start;fill:#ffffff;fill-opacity:1;stroke:none;font-family:URW Palladio L;-inkscape-font-specification:URW Palladio L Bold"
       id="path3536"
       d="M 11.8,15.787587 C 11.991223,16.307419 12.206458,16.728782 12.664931,16.152626 C 13.233336,15.814439 15.13785,14.332065 14.94728,15.784084 C 14.337456,18.470959 13.595164,21.129578 13.027599,23.82473 C 12.434128,25.300447 13.781784,26.635295 15.188835,25.675629 C 16.684439,25.05908 17.971402,24.054828 19.286181,23.133578 C 19.106788,22.693628 18.98722,22.061643 18.49154,22.636997 C 17.840686,22.932411 16.41915,24.32518 16.155055,23.176458 C 16.701766,20.267058 17.714698,17.465358 18.362182,14.579156 C 18.958035,13.252087 17.98489,11.575287 16.528203,12.673056 C 14.783055,13.433124 13.323653,14.674727 11.8,15.787587 L 11.8,15.787587 z M 18.276807,6.0022796 C 16.49624,5.9077863 15.565298,8.7781103 17.257359,9.5635603 C 18.630116,10.126541 20.124803,8.7186033 19.789444,7.3117493 C 19.68537,6.5791883 19.02767,5.9776374 18.276808,6.0022796 L 18.276807,6.0022796 z" />
  </g>
</svg>
