<?xml version="1.0" encoding="UTF-8" standalone="no"?>
<!-- Created with Inkscape (http://www.inkscape.org/) -->
<svg
   xmlns:dc="http://purl.org/dc/elements/1.1/"
   xmlns:cc="http://creativecommons.org/ns#"
   xmlns:rdf="http://www.w3.org/1999/02/22-rdf-syntax-ns#"
   xmlns:svg="http://www.w3.org/2000/svg"
   xmlns="http://www.w3.org/2000/svg"
   xmlns:xlink="http://www.w3.org/1999/xlink"
   xmlns:sodipodi="http://sodipodi.sourceforge.net/DTD/sodipodi-0.dtd"
   xmlns:inkscape="http://www.inkscape.org/namespaces/inkscape"
   version="1.1"
   width="48"
   height="48"
   id="svg3134"
   sodipodi:version="0.32"
   inkscape:version="0.46"
   sodipodi:docname="property.svg"
   inkscape:output_extension="org.inkscape.output.svg.inkscape"
   inkscape:export-filename="/home/alberto/.gvfs/sftp en 192.168.92.133/var/www/htdocs/repo/icons/property.png"
   inkscape:export-xdpi="71.999969"
   inkscape:export-ydpi="71.999969">
  <metadata
     id="metadata78">
    <rdf:RDF>
      <cc:Work
         rdf:about="">
        <dc:format>image/svg+xml</dc:format>
        <dc:type
           rdf:resource="http://purl.org/dc/dcmitype/StillImage" />
      </cc:Work>
    </rdf:RDF>
  </metadata>
  <sodipodi:namedview
     inkscape:window-height="739"
     inkscape:window-width="1366"
     inkscape:pageshadow="2"
     inkscape:pageopacity="0.0"
     guidetolerance="10.0"
     gridtolerance="10.0"
     objecttolerance="10.0"
     borderopacity="1.0"
     bordercolor="#666666"
     pagecolor="#ffffff"
     id="base"
     showgrid="false"
     inkscape:zoom="14.323426"
     inkscape:cx="23.000008"
     inkscape:cy="22.44153"
     inkscape:window-x="0"
     inkscape:window-y="0"
     inkscape:current-layer="svg3134" />
  <defs
     id="defs3136">
    <inkscape:perspective
       sodipodi:type="inkscape:persp3d"
       inkscape:vp_x="0 : 24 : 1"
       inkscape:vp_y="0 : 1000 : 0"
       inkscape:vp_z="48 : 24 : 1"
       inkscape:persp3d-origin="24 : 16 : 1"
       id="perspective80" />
    <linearGradient
       id="linearGradient3702">
      <stop
         id="stop3704"
         style="stop-color:black;stop-opacity:0"
         offset="0" />
      <stop
         id="stop3710"
         style="stop-color:black;stop-opacity:1"
         offset="0.5" />
      <stop
         id="stop3706"
         style="stop-color:black;stop-opacity:0"
         offset="1" />
    </linearGradient>
    <linearGradient
       x1="25.058096"
       y1="47.027729"
       x2="25.058096"
       y2="39.999443"
       id="linearGradient2098"
       xlink:href="#linearGradient3702"
       gradientUnits="userSpaceOnUse" />
    <radialGradient
       cx="4.9929786"
       cy="43.5"
       r="2.5"
       fx="4.9929786"
       fy="43.5"
       id="radialGradient2096"
       xlink:href="#linearGradient3688"
       gradientUnits="userSpaceOnUse"
       gradientTransform="matrix(2.003784,0,0,1.4,-20.01187,-104.4)" />
    <linearGradient
       id="linearGradient3688">
      <stop
         id="stop3690"
         style="stop-color:black;stop-opacity:1"
         offset="0" />
      <stop
         id="stop3692"
         style="stop-color:black;stop-opacity:0"
         offset="1" />
    </linearGradient>
    <radialGradient
       cx="4.9929786"
       cy="43.5"
       r="2.5"
       fx="4.9929786"
       fy="43.5"
       id="radialGradient2094"
       xlink:href="#linearGradient3688"
       gradientUnits="userSpaceOnUse"
       gradientTransform="matrix(2.003784,0,0,1.4,27.98813,-17.4)" />
    <linearGradient
       x1="9.117774"
       y1="18.345161"
       x2="8.4885712"
       y2="34.608616"
       id="linearGradient1992"
       xlink:href="#linearGradient4585"
       gradientUnits="userSpaceOnUse" />
    <linearGradient
       x1="11.511479"
       y1="0.75951481"
       x2="31.5"
       y2="36.625"
       id="linearGradient1990"
       xlink:href="#linearGradient6732"
       gradientUnits="userSpaceOnUse"
       gradientTransform="matrix(0.858045,0,0,0.8,-0.932219,9.3)" />
    <linearGradient
       id="linearGradient6732">
      <stop
         id="stop6734"
         style="stop-color:white;stop-opacity:1"
         offset="0" />
      <stop
         id="stop6736"
         style="stop-color:#ddd;stop-opacity:1"
         offset="1" />
    </linearGradient>
    <linearGradient
       id="linearGradient4585">
      <stop
         id="stop4587"
         style="stop-color:#9e9e9e;stop-opacity:1"
         offset="0" />
      <stop
         id="stop4589"
         style="stop-color:#ddd;stop-opacity:0"
         offset="1" />
    </linearGradient>
    <linearGradient
       id="linearGradient4222">
      <stop
         id="stop4224"
         style="stop-color:white;stop-opacity:1"
         offset="0" />
      <stop
         id="stop4226"
         style="stop-color:white;stop-opacity:0"
         offset="1" />
    </linearGradient>
    <linearGradient
       x1="24.138529"
       y1="-9.8008652"
       x2="24.138529"
       y2="47.272728"
       id="linearGradient5211"
       xlink:href="#linearGradient4222"
       gradientUnits="userSpaceOnUse"
       gradientTransform="matrix(0.5364316,0,0,0.5331957,-15.687737,50.16873)" />
    <linearGradient
       id="linearGradient2264">
      <stop
         id="stop2266"
         style="stop-color:#d7e866;stop-opacity:1"
         offset="0" />
      <stop
         id="stop2268"
         style="stop-color:#8cab2a;stop-opacity:1"
         offset="1" />
    </linearGradient>
    <linearGradient
       x1="24.103895"
       y1="15.168831"
       x2="24.103895"
       y2="32.485161"
       id="linearGradient5209"
       xlink:href="#linearGradient2264"
       gradientUnits="userSpaceOnUse"
       gradientTransform="matrix(0.8930497,0,0,0.8876627,-24.246571,42.1613)" />
    <linearGradient
       x1="9.117774"
       y1="18.345161"
       x2="8.4885712"
       y2="34.608616"
       id="linearGradient2915"
       xlink:href="#linearGradient4585"
       gradientUnits="userSpaceOnUse"
       gradientTransform="matrix(1.102491,0,0,1.030637,1.4303085,-3.345578)" />
    <linearGradient
       x1="11.511479"
       y1="0.75951481"
       x2="31.5"
       y2="36.625"
       id="linearGradient2934"
       xlink:href="#linearGradient6732"
       gradientUnits="userSpaceOnUse"
       gradientTransform="matrix(0.93233,0,0,0.832,0.8270675,6.012004)" />
    <linearGradient
       y2="44.140411"
       x2="-9.7747231"
       y1="44.228992"
       x1="-6.3077531"
       gradientTransform="matrix(0.3187755,-0.3234829,0.5409038,0.5489151,17.321897,-7.3172302)"
       gradientUnits="userSpaceOnUse"
       id="linearGradient3097"
       xlink:href="#linearGradient6221"
       inkscape:collect="always" />
    <linearGradient
       y2="27.272705"
       x2="36.000526"
       y1="34.022705"
       x1="29.278061"
       gradientTransform="matrix(0.6369768,0,0,0.6474184,17.392736,-1.4842138)"
       gradientUnits="userSpaceOnUse"
       id="linearGradient3095"
       xlink:href="#linearGradient2490"
       inkscape:collect="always" />
    <linearGradient
       y2="35.079365"
       x2="90.220802"
       y1="35.152435"
       x1="97.442131"
       gradientTransform="matrix(0.5240682,-0.532298,0.4583763,0.4655744,-28.535015,51.310659)"
       gradientUnits="userSpaceOnUse"
       id="linearGradient3093"
       xlink:href="#linearGradient4956"
       inkscape:collect="always" />
    <radialGradient
       r="12.727922"
       fy="34.498356"
       fx="21.96048"
       cy="34.498356"
       cx="21.96048"
       gradientTransform="matrix(0.1509325,0,0,5.8654424e-2,40.126188,25.248194)"
       gradientUnits="userSpaceOnUse"
       id="radialGradient3091"
       xlink:href="#linearGradient6221"
       inkscape:collect="always" />
    <linearGradient
       y2="88.006248"
       x2="317.16116"
       y1="75.575363"
       x1="326.60196"
       gradientTransform="matrix(0.868211,0,0,0.8815858,-239.8291,-45.481774)"
       gradientUnits="userSpaceOnUse"
       id="linearGradient3089"
       xlink:href="#linearGradient7421"
       inkscape:collect="always" />
    <linearGradient
       y2="60.767513"
       x2="308.64914"
       y1="58.442768"
       x1="302.29202"
       gradientTransform="matrix(0.868211,0,0,0.8815858,-239.8291,-45.481774)"
       gradientUnits="userSpaceOnUse"
       id="linearGradient3087"
       xlink:href="#linearGradient7381"
       inkscape:collect="always" />
    <linearGradient
       y2="99.273735"
       x2="330.06076"
       y1="70.282364"
       x1="324.49731"
       gradientTransform="matrix(0.868211,0,0,0.8815858,-239.8291,-45.481774)"
       gradientUnits="userSpaceOnUse"
       id="linearGradient3085"
       xlink:href="#linearGradient7444"
       inkscape:collect="always" />
    <linearGradient
       y2="81.926315"
       x2="335.30014"
       y1="64.295265"
       x1="304.76227"
       gradientTransform="matrix(0.868211,0,0,0.8815858,-239.8291,-45.481774)"
       gradientUnits="userSpaceOnUse"
       id="linearGradient3083"
       xlink:href="#linearGradient4434"
       inkscape:collect="always" />
    <linearGradient
       y2="99.273735"
       x2="330.06076"
       y1="70.282364"
       x1="324.49731"
       gradientTransform="matrix(0.868211,0,0,0.8815858,-239.8291,-45.481774)"
       gradientUnits="userSpaceOnUse"
       id="linearGradient3056"
       xlink:href="#linearGradient7444"
       inkscape:collect="always" />
    <linearGradient
       y2="81.926315"
       x2="335.30014"
       y1="64.295265"
       x1="304.76227"
       gradientTransform="matrix(0.868211,0,0,0.8815858,-239.8291,-45.481774)"
       gradientUnits="userSpaceOnUse"
       id="linearGradient3054"
       xlink:href="#linearGradient4434"
       inkscape:collect="always" />
    <linearGradient
       y2="60.767513"
       x2="308.64914"
       y1="58.442768"
       x1="302.29202"
       gradientTransform="matrix(0.868211,0,0,0.8815858,-239.8291,-45.481774)"
       gradientUnits="userSpaceOnUse"
       id="linearGradient3051"
       xlink:href="#linearGradient7381"
       inkscape:collect="always" />
    <linearGradient
       y2="88.006248"
       x2="317.16116"
       y1="75.575363"
       x1="326.60196"
       gradientTransform="matrix(0.868211,0,0,0.8815858,-239.8291,-45.481774)"
       gradientUnits="userSpaceOnUse"
       id="linearGradient3048"
       xlink:href="#linearGradient7421"
       inkscape:collect="always" />
    <radialGradient
       r="12.727922"
       fy="34.498356"
       fx="21.96048"
       cy="34.498356"
       cx="21.96048"
       gradientTransform="matrix(0.295158,0,0,0.1294395,14.797929,22.885708)"
       gradientUnits="userSpaceOnUse"
       id="radialGradient3043"
       xlink:href="#linearGradient6221"
       inkscape:collect="always" />
    <radialGradient
       r="12.727922"
       fy="34.498356"
       fx="21.96048"
       cy="34.498356"
       cx="21.96048"
       gradientTransform="matrix(0.1154964,0,0,4.8878652e-2,18.560617,25.886836)"
       gradientUnits="userSpaceOnUse"
       id="radialGradient3040"
       xlink:href="#linearGradient6221"
       inkscape:collect="always" />
    <radialGradient
       r="12.727922"
       fy="34.498356"
       fx="21.96048"
       cy="34.498356"
       cx="21.96048"
       gradientTransform="matrix(0.1509325,0,0,5.8654424e-2,40.126188,25.248194)"
       gradientUnits="userSpaceOnUse"
       id="radialGradient3034"
       xlink:href="#linearGradient6221"
       inkscape:collect="always" />
    <linearGradient
       gradientTransform="matrix(0.6369768,0,0,0.6474184,17.392736,-1.4842138)"
       y2="27.272705"
       x2="36.000526"
       y1="34.022705"
       x1="29.278061"
       gradientUnits="userSpaceOnUse"
       id="linearGradient3031"
       xlink:href="#linearGradient2490"
       inkscape:collect="always" />
    <linearGradient
       y2="35.079365"
       x2="90.220802"
       y1="35.152435"
       x1="97.442131"
       gradientTransform="matrix(0.5240682,-0.532298,0.4583763,0.4655744,-28.535015,51.310659)"
       gradientUnits="userSpaceOnUse"
       id="linearGradient3029"
       xlink:href="#linearGradient4956"
       inkscape:collect="always" />
    <linearGradient
       y2="44.140411"
       x2="-9.7747231"
       y1="44.228992"
       x1="-6.3077531"
       gradientTransform="matrix(0.3187755,-0.3234829,0.5409038,0.5489151,17.321897,-7.3172302)"
       gradientUnits="userSpaceOnUse"
       id="linearGradient3026"
       xlink:href="#linearGradient6221"
       inkscape:collect="always" />
    <linearGradient
       y2="12.324154"
       x2="-36.082916"
       y1="7.7140422"
       x1="-45.568657"
       gradientTransform="matrix(0.6722595,0,0,0.6723138,-5.5752293,13.374374)"
       gradientUnits="userSpaceOnUse"
       id="linearGradient3023"
       xlink:href="#linearGradient4093"
       inkscape:collect="always" />
    <linearGradient
       y2="40.94883"
       x2="-10.565685"
       y1="40.971893"
       x1="-2.1966379"
       gradientTransform="matrix(0.5425765,-1.9251884e-8,0,1.0813014,-28.772218,-23.306959)"
       gradientUnits="userSpaceOnUse"
       id="linearGradient3021"
       xlink:href="#linearGradient4099"
       inkscape:collect="always" />
    <radialGradient
       r="2"
       fy="21.62282"
       fx="25.977057"
       cy="21.62282"
       cx="25.977057"
       gradientTransform="matrix(-0.6369772,-0.6474184,0.5035747,-0.5118297,38.975247,41.291636)"
       gradientUnits="userSpaceOnUse"
       id="radialGradient3018"
       xlink:href="#linearGradient6221"
       inkscape:collect="always" />
    <radialGradient
       r="3.9059753"
       fy="11.839552"
       fx="-39.458145"
       cy="11.839552"
       cx="-39.458145"
       gradientTransform="matrix(1.5112073,-0.1049163,0.1841804,3.8356819,26.577712,-28.62375)"
       gradientUnits="userSpaceOnUse"
       id="radialGradient3015"
       xlink:href="#linearGradient5443"
       inkscape:collect="always" />
    <linearGradient
       y2="26.885212"
       x2="31.088694"
       y1="35.624268"
       x1="22.375778"
       gradientTransform="matrix(0.6668308,0,0,0.677764,13.316886,-5.5759916)"
       gradientUnits="userSpaceOnUse"
       id="linearGradient3012"
       xlink:href="#linearGradient7444"
       inkscape:collect="always" />
    <linearGradient
       y2="22.476452"
       x2="27.367689"
       y1="20.761639"
       x1="25.571766"
       gradientTransform="matrix(-0.6639844,0,0,-0.6719178,45.739119,33.137191)"
       gradientUnits="userSpaceOnUse"
       id="linearGradient3010"
       xlink:href="#linearGradient7381"
       inkscape:collect="always" />
    <linearGradient
       y2="36.891792"
       x2="-6.9301171"
       y1="36.91201"
       x1="-10.939023"
       gradientTransform="matrix(0.3872872,0,0,0.936699,-31.51148,-15.063565)"
       gradientUnits="userSpaceOnUse"
       id="linearGradient3007"
       xlink:href="#linearGradient6221"
       inkscape:collect="always" />
    <linearGradient
       y2="40.309151"
       x2="-10.179404"
       y1="40.323612"
       x1="-7.0973897"
       gradientTransform="matrix(0.3241419,0,0,0.9119218,-30.560477,-13.571261)"
       gradientUnits="userSpaceOnUse"
       id="linearGradient3004"
       xlink:href="#linearGradient6221"
       inkscape:collect="always" />
    <linearGradient
       y2="37.585964"
       x2="56.446907"
       y1="37.501415"
       x1="58.548462"
       gradientTransform="matrix(0.66569,0,0,1.3800425,-69.817726,-29.562366)"
       gradientUnits="userSpaceOnUse"
       id="linearGradient3001"
       xlink:href="#linearGradient5443"
       inkscape:collect="always" />
    <linearGradient
       y2="12.584867"
       x2="54.72097"
       y1="1.0000008"
       x1="54.765163"
       gradientTransform="matrix(-0.4663966,-0.4751175,0.4663966,-0.4751175,45.124729,53.698978)"
       gradientUnits="userSpaceOnUse"
       id="linearGradient2998"
       xlink:href="#linearGradient5443"
       inkscape:collect="always" />
    <linearGradient
       y2="12.584867"
       x2="54.72097"
       y1="1.0000008"
       x1="54.765163"
       gradientTransform="matrix(-0.7322034,-0.7338647,0.7322034,-0.7338647,43.536897,85.235748)"
       gradientUnits="userSpaceOnUse"
       id="linearGradient2994"
       xlink:href="#linearGradient5443"
       inkscape:collect="always" />
    <linearGradient
       y2="37.585964"
       x2="56.446907"
       y1="37.501415"
       x1="58.548462"
       gradientTransform="matrix(1.0366781,0,0,2.1488993,-91.059476,-66.82358)"
       gradientUnits="userSpaceOnUse"
       id="linearGradient2992"
       xlink:href="#linearGradient5443"
       inkscape:collect="always" />
    <linearGradient
       y2="40.309151"
       x2="-10.179404"
       y1="40.323612"
       x1="-7.0973897"
       gradientTransform="matrix(0.504795,0,0,1.4199623,-29.912037,-41.903196)"
       gradientUnits="userSpaceOnUse"
       id="linearGradient2990"
       xlink:href="#linearGradient6221"
       inkscape:collect="always" />
    <linearGradient
       y2="36.891792"
       x2="-6.9301171"
       y1="36.91201"
       x1="-10.939023"
       gradientTransform="matrix(0.6031218,0,0,1.4585579,-31.405216,-44.247128)"
       gradientUnits="userSpaceOnUse"
       id="linearGradient2988"
       xlink:href="#linearGradient6221"
       inkscape:collect="always" />
    <linearGradient
       y2="26.885212"
       x2="31.088694"
       y1="35.624268"
       x1="22.375778"
       gradientTransform="matrix(1.0468682,0,0,1.0468717,-6.3987424,-6.3201445)"
       gradientUnits="userSpaceOnUse"
       id="linearGradient2986"
       xlink:href="#linearGradient7444"
       inkscape:collect="always" />
    <linearGradient
       y2="22.476452"
       x2="27.367689"
       y1="20.761639"
       x1="25.571766"
       gradientTransform="matrix(-1.0423996,0,0,-1.0378417,44.501437,53.47609)"
       gradientUnits="userSpaceOnUse"
       id="linearGradient2984"
       xlink:href="#linearGradient7381"
       inkscape:collect="always" />
    <radialGradient
       r="3.9059753"
       fy="11.839552"
       fx="-39.458145"
       cy="11.839552"
       cx="-39.458145"
       gradientTransform="matrix(2.3533908,-0.1633668,0.2868227,5.972601,59.064681,-65.366515)"
       gradientUnits="userSpaceOnUse"
       id="radialGradient2982"
       xlink:href="#linearGradient5443"
       inkscape:collect="always" />
    <radialGradient
       r="2"
       fy="21.62282"
       fx="25.977057"
       cy="21.62282"
       cx="25.977057"
       gradientTransform="matrix(0.8080342,-2.610843e-2,9.43568e-3,1.3973911,4.7598055,-7.9089329)"
       gradientUnits="userSpaceOnUse"
       id="radialGradient2980"
       xlink:href="#linearGradient6221"
       inkscape:collect="always" />
    <linearGradient
       y2="12.324154"
       x2="-36.082916"
       y1="7.7140422"
       x1="-45.568657"
       gradientTransform="matrix(1.0468699,0,0,1.04687,8.9937435,-6.18744e-3)"
       gradientUnits="userSpaceOnUse"
       id="linearGradient2978"
       xlink:href="#linearGradient4093"
       inkscape:collect="always" />
    <linearGradient
       y2="40.94883"
       x2="-10.565685"
       y1="40.971893"
       x1="-2.1966379"
       gradientTransform="matrix(0.8449223,-2.9977401e-8,0,1.6837108,-27.129552,-57.123248)"
       gradientUnits="userSpaceOnUse"
       id="linearGradient2976"
       xlink:href="#linearGradient4099"
       inkscape:collect="always" />
    <linearGradient
       y2="44.140411"
       x2="-9.7747231"
       y1="44.228992"
       x1="-6.3077531"
       gradientTransform="matrix(0.5004508,-0.4996505,0.8491734,0.8478521,-0.1112119,-9.009655)"
       gradientUnits="userSpaceOnUse"
       id="linearGradient2974"
       xlink:href="#linearGradient6221"
       inkscape:collect="always" />
    <linearGradient
       y2="27.272705"
       x2="36.000526"
       y1="34.022705"
       x1="29.278061"
       gradientUnits="userSpaceOnUse"
       id="linearGradient2972"
       xlink:href="#linearGradient2490"
       inkscape:collect="always" />
    <linearGradient
       y2="35.079365"
       x2="90.220802"
       y1="35.152435"
       x1="97.442131"
       gradientTransform="matrix(0.822743,-0.8221855,0.7196122,0.7191245,-72.102706,81.54676)"
       gradientUnits="userSpaceOnUse"
       id="linearGradient2970"
       xlink:href="#linearGradient4956"
       inkscape:collect="always" />
    <radialGradient
       r="12.727922"
       fy="34.498356"
       fx="21.96048"
       cy="34.498356"
       cx="21.96048"
       gradientTransform="matrix(0.2369514,0,0,9.05974e-2,35.689607,41.290776)"
       gradientUnits="userSpaceOnUse"
       id="radialGradient2968"
       xlink:href="#linearGradient6221"
       inkscape:collect="always" />
    <radialGradient
       r="12.727922"
       fy="34.498356"
       fx="21.96048"
       cy="34.498356"
       cx="21.96048"
       gradientTransform="matrix(0.5792147,0,0,0.2399181,27.90798,35.770022)"
       gradientUnits="userSpaceOnUse"
       id="radialGradient2966"
       xlink:href="#linearGradient6221"
       inkscape:collect="always" />
    <radialGradient
       r="12.727922"
       fy="34.498356"
       fx="21.96048"
       cy="34.498356"
       cx="21.96048"
       gradientTransform="matrix(0.1813197,0,0,7.549778e-2,1.8334746,42.277219)"
       gradientUnits="userSpaceOnUse"
       id="radialGradient2964"
       xlink:href="#linearGradient6221"
       inkscape:collect="always" />
    <radialGradient
       r="12.727922"
       fy="34.498356"
       fx="21.96048"
       cy="34.498356"
       cx="21.96048"
       gradientTransform="matrix(0.4633732,0,0,0.1999317,-4.0736286,37.641689)"
       gradientUnits="userSpaceOnUse"
       id="radialGradient2962"
       xlink:href="#linearGradient6221"
       inkscape:collect="always" />
    <linearGradient
       y2="88.006248"
       x2="317.16116"
       y1="75.575363"
       x1="326.60196"
       gradientTransform="matrix(1.3630182,0,0,1.3616941,-403.81664,-67.958464)"
       gradientUnits="userSpaceOnUse"
       id="linearGradient2960"
       xlink:href="#linearGradient7421"
       inkscape:collect="always" />
    <linearGradient
       y2="60.767513"
       x2="308.64914"
       y1="58.442768"
       x1="302.29202"
       gradientTransform="matrix(1.3630182,0,0,1.3616941,-403.81664,-67.958464)"
       gradientUnits="userSpaceOnUse"
       id="linearGradient2958"
       xlink:href="#linearGradient7381"
       inkscape:collect="always" />
    <linearGradient
       y2="99.273735"
       x2="330.06076"
       y1="70.282364"
       x1="324.49731"
       gradientTransform="matrix(1.3630182,0,0,1.3616941,-403.81664,-67.958464)"
       gradientUnits="userSpaceOnUse"
       id="linearGradient2956"
       xlink:href="#linearGradient7444"
       inkscape:collect="always" />
    <linearGradient
       y2="81.926315"
       x2="335.30014"
       y1="64.295265"
       x1="304.76227"
       gradientTransform="matrix(1.3630182,0,0,1.3616941,-403.81664,-67.958464)"
       gradientUnits="userSpaceOnUse"
       id="linearGradient2954"
       xlink:href="#linearGradient4434"
       inkscape:collect="always" />
    <inkscape:perspective
       sodipodi:type="inkscape:persp3d"
       inkscape:vp_x="0 : 24 : 1"
       inkscape:vp_y="0 : 1000 : 0"
       inkscape:vp_z="48 : 24 : 1"
       inkscape:persp3d-origin="24 : 16 : 1"
       id="perspective2685" />
    <linearGradient
       id="linearGradient4956">
      <stop
         id="stop4958"
         style="stop-color:#f8b17e;stop-opacity:1"
         offset="0" />
      <stop
         id="stop4960"
         style="stop-color:#e35d4f;stop-opacity:1"
         offset="0.26238" />
      <stop
         id="stop4962"
         style="stop-color:#c6262e;stop-opacity:1"
         offset="0.66347069" />
      <stop
         id="stop4964"
         style="stop-color:#690b54;stop-opacity:1"
         offset="1" />
    </linearGradient>
    <linearGradient
       id="linearGradient4099">
      <stop
         id="stop4101"
         style="stop-color:#edd563;stop-opacity:1"
         offset="0" />
      <stop
         id="stop4103"
         style="stop-color:#e08223;stop-opacity:1"
         offset="1" />
    </linearGradient>
    <linearGradient
       id="linearGradient4093">
      <stop
         id="stop4095"
         style="stop-color:#bb5e12;stop-opacity:1"
         offset="0" />
      <stop
         id="stop4097"
         style="stop-color:#cd8033;stop-opacity:1"
         offset="1" />
    </linearGradient>
    <linearGradient
       id="linearGradient6221">
      <stop
         id="stop6223"
         style="stop-color:black;stop-opacity:1"
         offset="0" />
      <stop
         id="stop6225"
         style="stop-color:black;stop-opacity:0"
         offset="1" />
    </linearGradient>
    <linearGradient
       id="linearGradient5443">
      <stop
         id="stop5445"
         style="stop-color:white;stop-opacity:1"
         offset="0" />
      <stop
         id="stop5447"
         style="stop-color:white;stop-opacity:0"
         offset="1" />
    </linearGradient>
    <radialGradient
       cx="21.96048"
       cy="34.498356"
       r="12.727922"
       fx="21.96048"
       fy="34.498356"
       id="radialGradient2912"
       xlink:href="#linearGradient6221"
       gradientUnits="userSpaceOnUse"
       gradientTransform="matrix(0.2369514,0,0,9.05974e-2,35.689607,41.290776)" />
    <radialGradient
       cx="21.96048"
       cy="34.498356"
       r="12.727922"
       fx="21.96048"
       fy="34.498356"
       id="radialGradient2915"
       xlink:href="#linearGradient6221"
       gradientUnits="userSpaceOnUse"
       gradientTransform="matrix(0.5792147,0,0,0.2399181,27.90798,35.770022)" />
    <radialGradient
       cx="21.96048"
       cy="34.498356"
       r="12.727922"
       fx="21.96048"
       fy="34.498356"
       id="radialGradient2918"
       xlink:href="#linearGradient6221"
       gradientUnits="userSpaceOnUse"
       gradientTransform="matrix(0.1813197,0,0,7.549778e-2,1.8334746,42.277219)" />
    <radialGradient
       cx="21.96048"
       cy="34.498356"
       r="12.727922"
       fx="21.96048"
       fy="34.498356"
       id="radialGradient2921"
       xlink:href="#linearGradient6221"
       gradientUnits="userSpaceOnUse"
       gradientTransform="matrix(0.4633732,0,0,0.1999317,-4.0736286,37.641689)" />
    <linearGradient
       id="linearGradient4434">
      <stop
         id="stop4436"
         style="stop-color:#d3d7cf;stop-opacity:1"
         offset="0" />
      <stop
         id="stop4438"
         style="stop-color:#babdb6;stop-opacity:1"
         offset="0.18303643" />
      <stop
         id="stop4440"
         style="stop-color:white;stop-opacity:1"
         offset="0.31893486" />
      <stop
         id="stop4442"
         style="stop-color:#babdb6;stop-opacity:1"
         offset="0.87643671" />
      <stop
         id="stop4444"
         style="stop-color:#eeeeec;stop-opacity:1"
         offset="1" />
    </linearGradient>
    <linearGradient
       id="linearGradient7444">
      <stop
         id="stop7446"
         style="stop-color:#888a85;stop-opacity:1"
         offset="0" />
      <stop
         id="stop7448"
         style="stop-color:#555753;stop-opacity:1"
         offset="1" />
    </linearGradient>
    <linearGradient
       id="linearGradient7381">
      <stop
         id="stop7383"
         style="stop-color:#babdb6;stop-opacity:1"
         offset="0" />
      <stop
         id="stop7385"
         style="stop-color:white;stop-opacity:1"
         offset="1" />
    </linearGradient>
    <linearGradient
       id="linearGradient7421">
      <stop
         id="stop7423"
         style="stop-color:white;stop-opacity:1"
         offset="0" />
      <stop
         id="stop7425"
         style="stop-color:white;stop-opacity:0"
         offset="1" />
    </linearGradient>
    <linearGradient
       x1="-6.3077531"
       y1="44.228992"
       x2="-9.7747231"
       y2="44.140411"
       id="linearGradient4665"
       xlink:href="#linearGradient6221"
       gradientUnits="userSpaceOnUse"
       gradientTransform="matrix(0.5004508,-0.4996505,0.8491734,0.8478521,-0.1112119,-9.009655)" />
    <linearGradient
       x1="97.442131"
       y1="35.152435"
       x2="90.220802"
       y2="35.079365"
       id="linearGradient4668"
       xlink:href="#linearGradient4956"
       gradientUnits="userSpaceOnUse"
       gradientTransform="matrix(0.822743,-0.8221855,0.7196122,0.7191245,-72.102706,81.54676)" />
    <linearGradient
       x1="302.29202"
       y1="58.442768"
       x2="308.64914"
       y2="60.767513"
       id="linearGradient4734"
       xlink:href="#linearGradient7381"
       gradientUnits="userSpaceOnUse"
       gradientTransform="matrix(1.3630182,0,0,1.3616941,-403.81664,-67.958464)" />
    <linearGradient
       x1="304.76227"
       y1="64.295265"
       x2="335.30014"
       y2="81.926315"
       id="linearGradient4737"
       xlink:href="#linearGradient4434"
       gradientUnits="userSpaceOnUse"
       gradientTransform="matrix(1.3630182,0,0,1.3616941,-403.81664,-67.958464)" />
    <linearGradient
       x1="324.49731"
       y1="70.282364"
       x2="330.06076"
       y2="99.273735"
       id="linearGradient4739"
       xlink:href="#linearGradient7444"
       gradientUnits="userSpaceOnUse"
       gradientTransform="matrix(1.3630182,0,0,1.3616941,-403.81664,-67.958464)" />
    <linearGradient
       x1="326.60196"
       y1="75.575363"
       x2="317.16116"
       y2="88.006248"
       id="linearGradient4758"
       xlink:href="#linearGradient7421"
       gradientUnits="userSpaceOnUse"
       gradientTransform="matrix(1.3630182,0,0,1.3616941,-403.81664,-67.958464)" />
    <linearGradient
       id="linearGradient2490">
      <stop
         id="stop2492"
         style="stop-color:#791235;stop-opacity:1"
         offset="0" />
      <stop
         id="stop2494"
         style="stop-color:#dd3b27;stop-opacity:1"
         offset="1" />
    </linearGradient>
    <linearGradient
       x1="29.278061"
       y1="34.022705"
       x2="36.000526"
       y2="27.272705"
       id="linearGradient4972"
       xlink:href="#linearGradient2490"
       gradientUnits="userSpaceOnUse" />
    <linearGradient
       x1="54.765163"
       y1="1.0000008"
       x2="54.72097"
       y2="12.584867"
       id="linearGradient4987"
       xlink:href="#linearGradient5443"
       gradientUnits="userSpaceOnUse"
       gradientTransform="matrix(-0.7322034,-0.7338647,0.7322034,-0.7338647,43.536897,85.235748)" />
    <linearGradient
       x1="58.548462"
       y1="37.501415"
       x2="56.446907"
       y2="37.585964"
       id="linearGradient4990"
       xlink:href="#linearGradient5443"
       gradientUnits="userSpaceOnUse"
       gradientTransform="matrix(1.0366781,0,0,2.1488993,-91.059476,-66.82358)" />
    <linearGradient
       x1="-7.0973897"
       y1="40.323612"
       x2="-10.179404"
       y2="40.309151"
       id="linearGradient4993"
       xlink:href="#linearGradient6221"
       gradientUnits="userSpaceOnUse"
       gradientTransform="matrix(0.504795,0,0,1.4199623,-29.912037,-41.903196)" />
    <linearGradient
       x1="-10.939023"
       y1="36.91201"
       x2="-6.9301171"
       y2="36.891792"
       id="linearGradient4996"
       xlink:href="#linearGradient6221"
       gradientUnits="userSpaceOnUse"
       gradientTransform="matrix(0.6031218,0,0,1.4585579,-31.405216,-44.247128)" />
    <linearGradient
       x1="25.571766"
       y1="20.761639"
       x2="27.367689"
       y2="22.476452"
       id="linearGradient4999"
       xlink:href="#linearGradient7381"
       gradientUnits="userSpaceOnUse"
       gradientTransform="matrix(-1.0423996,0,0,-1.0378417,44.501437,53.47609)" />
    <linearGradient
       x1="22.375778"
       y1="35.624268"
       x2="31.088694"
       y2="26.885212"
       id="linearGradient5001"
       xlink:href="#linearGradient7444"
       gradientUnits="userSpaceOnUse"
       gradientTransform="matrix(1.0468682,0,0,1.0468717,-6.3987424,-6.3201445)" />
    <radialGradient
       cx="-39.458145"
       cy="11.839552"
       r="3.9059753"
       fx="-39.458145"
       fy="11.839552"
       id="radialGradient5004"
       xlink:href="#linearGradient5443"
       gradientUnits="userSpaceOnUse"
       gradientTransform="matrix(2.3533908,-0.1633668,0.2868227,5.972601,59.064681,-65.366515)" />
    <linearGradient
       x1="-2.1966379"
       y1="40.971893"
       x2="-10.565685"
       y2="40.94883"
       id="linearGradient5007"
       xlink:href="#linearGradient4099"
       gradientUnits="userSpaceOnUse"
       gradientTransform="matrix(0.8449223,-2.9977401e-8,0,1.6837108,-27.129552,-57.123248)" />
    <linearGradient
       x1="-45.568657"
       y1="7.7140422"
       x2="-36.082916"
       y2="12.324154"
       id="linearGradient5009"
       xlink:href="#linearGradient4093"
       gradientUnits="userSpaceOnUse"
       gradientTransform="matrix(1.0468699,0,0,1.04687,8.9937435,-6.18744e-3)" />
    <radialGradient
       cx="25.977057"
       cy="21.62282"
       r="2"
       fx="25.977057"
       fy="21.62282"
       id="radialGradient5017"
       xlink:href="#linearGradient6221"
       gradientUnits="userSpaceOnUse"
       gradientTransform="matrix(0.8080342,-2.610843e-2,9.43568e-3,1.3973911,4.7598055,-7.9089329)" />
    <linearGradient
       gradientTransform="matrix(0.333348,0,0,0.3255964,-3.2697791e-4,-5.04939e-3)"
       gradientUnits="userSpaceOnUse"
       xlink:href="#linearGradient3390-178-986-453"
       id="linearGradient3005"
       y2="-3"
       x2="20"
       y1="47"
       x1="20" />
    <linearGradient
       gradientTransform="matrix(0.333348,0,0,0.3255964,-3.2697791e-4,-5.04939e-3)"
       gradientUnits="userSpaceOnUse"
       xlink:href="#linearGradient7012-661-145-733-759-865-745-661-970-94"
       id="linearGradient3003"
       y2="47"
       x2="24"
       y1="-3"
       x1="24" />
    <linearGradient
       gradientTransform="matrix(0.3209283,0,-1.39698e-3,0.3253793,-1.319947,-5.0848204)"
       gradientUnits="userSpaceOnUse"
       xlink:href="#linearGradient11223"
       id="linearGradient3000"
       y2="57.567127"
       x2="29.291178"
       y1="19.787613"
       x1="29.126724" />
    <linearGradient
       id="linearGradient3390-178-986-453">
      <stop
         offset="0"
         style="stop-color:#bb5e12;stop-opacity:1"
         id="stop3624" />
      <stop
         offset="1"
         style="stop-color:#cd8033;stop-opacity:1"
         id="stop3626" />
    </linearGradient>
    <linearGradient
       id="linearGradient7012-661-145-733-759-865-745-661-970-94">
      <stop
         offset="0"
         style="stop-color:#edd563;stop-opacity:1"
         id="stop3618" />
      <stop
         offset="1"
         style="stop-color:#e08223;stop-opacity:1"
         id="stop3620" />
    </linearGradient>
    <linearGradient
       gradientUnits="userSpaceOnUse"
       id="linearGradient11223"
       y2="56.052299"
       x2="47.319698"
       y1="11.1133"
       x1="4.1914001">
      <stop
         offset="0"
         style="stop-color:white;stop-opacity:1"
         id="stop11225" />
      <stop
         offset="1"
         style="stop-color:white;stop-opacity:0"
         id="stop11227" />
    </linearGradient>
    <inkscape:perspective
       id="perspective24"
       inkscape:persp3d-origin="8 : 5.3333333 : 1"
       inkscape:vp_z="16 : 8 : 1"
       inkscape:vp_y="0 : 1000 : 0"
       inkscape:vp_x="0 : 8 : 1"
       sodipodi:type="inkscape:persp3d" />
    <radialGradient
       inkscape:collect="always"
       xlink:href="#linearGradient6221"
       id="radialGradient3013"
       gradientUnits="userSpaceOnUse"
       gradientTransform="matrix(0.3689463,0,0,0.1553274,29.024029,36.335334)"
       cx="21.96048"
       cy="34.498356"
       fx="21.96048"
       fy="34.498356"
       r="12.727922" />
    <linearGradient
       inkscape:collect="always"
       xlink:href="#linearGradient11223"
       id="linearGradient3020"
       gradientUnits="userSpaceOnUse"
       gradientTransform="matrix(0.3209283,0,-1.39698e-3,0.3253793,-42.930976,-4.5125115)"
       x1="29.126724"
       y1="19.787613"
       x2="29.291178"
       y2="57.567127" />
    <linearGradient
       inkscape:collect="always"
       xlink:href="#linearGradient7012-661-145-733-759-865-745-661-970-94"
       id="linearGradient3024"
       gradientUnits="userSpaceOnUse"
       gradientTransform="matrix(0.333348,0,0,0.3255964,-41.51419,23.498433)"
       x1="24"
       y1="-3"
       x2="24"
       y2="47" />
    <linearGradient
       inkscape:collect="always"
       xlink:href="#linearGradient3390-178-986-453"
       id="linearGradient3027"
       gradientUnits="userSpaceOnUse"
       gradientTransform="matrix(0.333348,0,0,0.3255964,-41.51419,23.498433)"
       x1="20"
       y1="47"
       x2="20"
       y2="-3" />
  </defs>
  <g
     transform="matrix(1,0,0,0.555556,-1.000002,13.88887)"
     id="g2043">
    <g
       id="g2036"
       style="display:inline">
      <g
         transform="matrix(1.052632,0,0,1.285713,-1.263158,-13.42854)"
         id="g3712"
         style="opacity:0.4">
        <rect
           width="5"
           height="7"
           x="38"
           y="40"
           id="rect2801"
           style="fill:url(#radialGradient2094);fill-opacity:1;stroke:none" />
        <rect
           width="5"
           height="7"
           x="-10"
           y="-47"
           transform="scale(-1,-1)"
           id="rect3696"
           style="fill:url(#radialGradient2096);fill-opacity:1;stroke:none" />
        <rect
           width="28"
           height="7.0000005"
           x="10"
           y="40"
           id="rect3700"
           style="fill:url(#linearGradient2098);fill-opacity:1;stroke:none" />
      </g>
    </g>
  </g>
  <g
     transform="translate(2.9999985,-2)"
     id="g1962"
     style="display:inline">
    <rect
       width="34.000015"
       height="24"
       rx="2.7500012"
       ry="2.7499983"
       x="2.5000017"
       y="16.499996"
       id="rect5857"
       style="fill:url(#linearGradient1990);fill-opacity:1;fill-rule:evenodd;stroke:#939393;stroke-width:0.99999994;stroke-linecap:butt;stroke-linejoin:miter;stroke-miterlimit:4;stroke-opacity:1;stroke-dasharray:none;stroke-dashoffset:0;marker:none;visibility:visible;display:inline;overflow:visible" />
    <path
       d="m 18.395099,22.588796 c 0,0.294138 -0.06929,0.519713 -0.207851,0.676725 -0.138572,0.155966 -0.327526,0.233949 -0.566874,0.233949 -0.09763,0 -0.191057,-0.01832 -0.280291,-0.05495 l 0,-0.417654 c 0.07874,0.05967 0.165868,0.0895 0.261393,0.0895 0.117576,0 0.205753,-0.04344 0.264545,-0.130321 0.05983,-0.08793 0.08975,-0.219293 0.08975,-0.394102 l 0,-1.392703 0.439328,0 0,1.389563 m 1.226649,-0.803906 c 0.24564,2e-6 0.441423,0.07537 0.587344,0.226098 0.145913,0.150734 0.218869,0.353281 0.218869,0.60764 0,0.276344 -0.07821,0.491974 -0.234622,0.646893 -0.156414,0.153873 -0.366362,0.230809 -0.629851,0.230809 -0.242502,0 -0.439851,-0.07589 -0.592071,-0.227669 -0.151163,-0.151778 -0.226749,-0.350661 -0.226749,-0.596648 0,-0.276342 0.07926,-0.49302 0.237775,-0.650033 0.158512,-0.158058 0.371613,-0.237088 0.639305,-0.23709 m -0.03622,1.373863 c 0.128071,0 0.231992,-0.04553 0.31178,-0.136602 0.08083,-0.09211 0.121247,-0.2172 0.121247,-0.37526 0,-0.160152 -0.03989,-0.286286 -0.119674,-0.378401 -0.07979,-0.09316 -0.182137,-0.139741 -0.307054,-0.139742 -0.123876,10e-7 -0.228854,0.04867 -0.314933,0.146022 -0.08608,0.0963 -0.12912,0.223483 -0.12912,0.381541 0,0.155967 0.04199,0.278961 0.125974,0.36898 0.08503,0.08898 0.188952,0.133462 0.31178,0.133462 m 2.675322,0.292043 -0.422011,0 0,-0.880842 c 0,-0.147591 -0.02257,-0.254359 -0.06771,-0.320306 -0.04515,-0.06699 -0.122304,-0.100487 -0.231476,-0.100488 -0.09553,1e-6 -0.174788,0.03611 -0.237767,0.108339 -0.06299,0.07223 -0.09448,0.164341 -0.09448,0.276342 l 0,0.916955 -0.426728,0 0,-2.380314 0.426728,0 0,0.997031 c 0.05774,-0.09421 0.129643,-0.164862 0.215731,-0.211967 0.08713,-0.0471 0.188428,-0.07065 0.3039,-0.07066 0.177409,2e-6 0.310731,0.05496 0.399964,0.164864 0.08923,0.10991 0.133838,0.274774 0.133848,0.49459 l 0,1.006452 m 1.93366,0 -0.42201,0 0,-0.880842 c 0,-0.147591 -0.02257,-0.254359 -0.06771,-0.320306 -0.04514,-0.06699 -0.12229,-0.100487 -0.23147,-0.100488 -0.09553,10e-7 -0.17478,0.03611 -0.23777,0.108339 -0.06299,0.07223 -0.09448,0.164341 -0.09448,0.276342 l 0,0.916955 -0.42673,0 0,-1.607811 0.42673,0 0,0.224528 c 0.05774,-0.09421 0.12965,-0.164862 0.21573,-0.211967 0.08712,-0.0471 0.18842,-0.07065 0.3039,-0.07066 0.17741,2e-6 0.31073,0.05496 0.39996,0.164864 0.08923,0.10991 0.13385,0.274774 0.13385,0.49459 l 0,1.006452 m 1.38096,-2.251563 0.79047,0 c 0.38211,2e-6 0.6687,0.09159 0.85976,0.274772 0.1921,0.183183 0.28815,0.457432 0.28815,0.822747 0,0.352756 -0.10812,0.633285 -0.32437,0.841589 -0.21521,0.208303 -0.50704,0.312455 -0.87551,0.312455 l -0.7385,0 0,-2.251563 m 0.43932,1.904565 0.28974,0 c 0.23724,0 0.42358,-0.07066 0.559,-0.211967 0.13647,-0.141311 0.20469,-0.334437 0.2047,-0.579378 -10e-6,-0.237611 -0.06614,-0.422362 -0.1984,-0.554255 -0.13228,-0.131889 -0.31651,-0.197835 -0.5527,-0.197836 l -0.30234,0 0,1.543436 m 2.62651,-1.318908 c 0.24564,2e-6 0.44142,0.07537 0.58734,0.226098 0.14591,0.150734 0.21888,0.353281 0.21888,0.60764 0,0.276344 -0.07821,0.491974 -0.23462,0.646893 -0.15642,0.153873 -0.36637,0.230809 -0.62986,0.230809 -0.2425,0 -0.43985,-0.07589 -0.59207,-0.227669 -0.15117,-0.151778 -0.22675,-0.350661 -0.22675,-0.596648 0,-0.276342 0.07926,-0.49302 0.23777,-0.650033 0.15851,-0.158058 0.37162,-0.237088 0.63931,-0.23709 m -0.03622,1.373863 c 0.12807,0 0.232,-0.04553 0.31178,-0.136602 0.08083,-0.09211 0.12125,-0.2172 0.12125,-0.37526 0,-0.160152 -0.0399,-0.286286 -0.11968,-0.378401 -0.07978,-0.09316 -0.18213,-0.139741 -0.30705,-0.139742 -0.12388,1e-6 -0.22885,0.04867 -0.31493,0.146022 -0.08608,0.0963 -0.12912,0.223483 -0.12912,0.381541 0,0.155967 0.04199,0.278961 0.12597,0.36898 0.08503,0.08898 0.18896,0.133462 0.31178,0.133462 m 2.58242,-0.419225 -1.07391,0 c 0,0.131892 0.04041,0.234473 0.12125,0.307745 0.08188,0.07223 0.19525,0.10834 0.34012,0.108339 0.15956,1e-6 0.31336,-0.04763 0.46137,-0.142882 l 0,0.348569 c -0.16586,0.08583 -0.35167,0.128751 -0.55742,0.128751 -0.2488,0 -0.44352,-0.07275 -0.58419,-0.218249 -0.13962,-0.145498 -0.20944,-0.34438 -0.20944,-0.596648 0,-0.272155 0.07454,-0.488832 0.22361,-0.650034 0.15011,-0.162244 0.34747,-0.243367 0.59206,-0.243369 0.2152,2e-6 0.38316,0.06699 0.50389,0.200976 0.12177,0.132939 0.18266,0.318737 0.18266,0.557396 l 0,0.199406 m -0.39367,-0.282623 c 0,-0.112002 -0.02834,-0.199405 -0.08503,-0.262211 -0.05563,-0.0628 -0.13489,-0.09421 -0.23777,-0.09421 -0.09342,2e-6 -0.17426,0.03245 -0.24249,0.09735 -0.06824,0.06385 -0.10655,0.15021 -0.11495,0.259071 l 0.68024,0"
       id="text6970"
       style="font-size:4.12102222px;font-style:normal;font-variant:normal;font-weight:bold;font-stretch:normal;text-align:start;line-height:120.00000477%;writing-mode:lr-tb;text-anchor:start;fill:black;fill-opacity:1;stroke:none;font-family:Segoe" />
    <rect
       width="15"
       height="2"
       rx="1"
       ry="1"
       x="17"
       y="25"
       id="rect6978"
       style="opacity:0.3976608;fill:#8d8d8d;fill-opacity:1;fill-rule:evenodd;stroke:none;stroke-width:1;marker:none;visibility:visible;display:inline;overflow:visible" />
    <rect
       width="10.955575"
       height="2"
       rx="1"
       ry="1"
       x="17.089211"
       y="28"
       id="rect6980"
       style="opacity:0.3976608;fill:#8d8d8d;fill-opacity:1;fill-rule:evenodd;stroke:none;stroke-width:1;marker:none;visibility:visible;display:inline;overflow:visible" />
    <g
       transform="matrix(0.782541,0,0,0.650248,0.39068,14.55146)"
       id="g7033"
       style="opacity:0.48538011">
      <rect
         width="1"
         height="6"
         rx="0"
         ry="0"
         x="6"
         y="30"
         id="rect7003"
         style="fill:black;fill-opacity:1;fill-rule:evenodd;stroke:none;stroke-width:1;marker:none;visibility:visible;display:inline;overflow:visible" />
      <rect
         width="1.9375"
         height="2.9851687"
         rx="0"
         ry="0"
         x="8.0846453"
         y="30"
         id="rect7005"
         style="fill:black;fill-opacity:1;fill-rule:evenodd;stroke:none;stroke-width:1;marker:none;visibility:visible;display:inline;overflow:visible" />
      <rect
         width="1"
         height="2.9851687"
         x="11"
         y="30"
         id="rect7007"
         style="fill:black;fill-opacity:1;fill-rule:evenodd;stroke:none;stroke-width:1;marker:none;visibility:visible;display:inline;overflow:visible" />
      <rect
         width="2"
         height="2.9851687"
         x="13"
         y="30"
         id="rect7009"
         style="fill:black;fill-opacity:1;fill-rule:evenodd;stroke:none;stroke-width:1;marker:none;visibility:visible;display:inline;overflow:visible" />
      <rect
         width="1"
         height="2.9851687"
         x="16"
         y="30"
         id="rect7011"
         style="fill:black;fill-opacity:1;fill-rule:evenodd;stroke:none;stroke-width:1;marker:none;visibility:visible;display:inline;overflow:visible" />
      <rect
         width="1"
         height="2.9851687"
         x="18"
         y="30"
         id="rect7013"
         style="fill:black;fill-opacity:1;fill-rule:evenodd;stroke:none;stroke-width:1;marker:none;visibility:visible;display:inline;overflow:visible" />
      <rect
         width="1"
         height="2.9851687"
         x="21"
         y="30"
         id="rect7015"
         style="fill:black;fill-opacity:1;fill-rule:evenodd;stroke:none;stroke-width:1;marker:none;visibility:visible;display:inline;overflow:visible" />
      <rect
         width="2"
         height="2.9851687"
         x="23"
         y="30"
         id="rect7017"
         style="fill:black;fill-opacity:1;fill-rule:evenodd;stroke:none;stroke-width:1;marker:none;visibility:visible;display:inline;overflow:visible" />
      <rect
         width="2"
         height="2.9851687"
         x="26"
         y="30"
         id="rect7019"
         style="fill:black;fill-opacity:1;fill-rule:evenodd;stroke:none;stroke-width:1;marker:none;visibility:visible;display:inline;overflow:visible" />
      <rect
         width="1"
         height="2.9851687"
         x="29"
         y="30"
         id="rect7021"
         style="fill:black;fill-opacity:1;fill-rule:evenodd;stroke:none;stroke-width:1;marker:none;visibility:visible;display:inline;overflow:visible" />
      <rect
         width="1"
         height="2.9851687"
         x="31"
         y="30"
         id="rect7023"
         style="fill:black;fill-opacity:1;fill-rule:evenodd;stroke:none;stroke-width:1;marker:none;visibility:visible;display:inline;overflow:visible" />
      <rect
         width="1"
         height="2.9851687"
         x="33"
         y="30"
         id="rect7025"
         style="fill:black;fill-opacity:1;fill-rule:evenodd;stroke:none;stroke-width:1;marker:none;visibility:visible;display:inline;overflow:visible" />
      <rect
         width="2"
         height="2.9851687"
         x="35"
         y="30"
         id="rect7027"
         style="fill:black;fill-opacity:1;fill-rule:evenodd;stroke:none;stroke-width:1;marker:none;visibility:visible;display:inline;overflow:visible" />
      <rect
         width="2"
         height="2.9851687"
         x="39"
         y="30"
         id="rect7029"
         style="fill:black;fill-opacity:1;fill-rule:evenodd;stroke:none;stroke-width:1;marker:none;visibility:visible;display:inline;overflow:visible" />
      <rect
         width="1"
         height="6"
         x="42"
         y="30"
         id="rect7031"
         style="fill:black;fill-opacity:1;fill-rule:evenodd;stroke:none;stroke-width:1;marker:none;visibility:visible;display:inline;overflow:visible" />
    </g>
    <path
       d="m 7.4730264,37.137227 c 0.058659,0.01251 0.104375,0.03852 0.13714,0.07805 0.033172,0.03953 0.049762,0.08834 0.049762,0.14643 0,0.08915 -0.030746,0.158128 -0.092238,0.206938 -0.061492,0.04881 -0.148871,0.07322 -0.262144,0.07322 -0.038031,0 -0.077276,-0.0038 -0.117725,-0.0115 -0.040051,-0.0073 -0.081517,-0.01835 -0.124401,-0.03328 l 0,-0.117991 c 0.033986,0.01977 0.071204,0.03469 0.111653,0.04478 0.040458,0.01009 0.082731,0.01513 0.126827,0.01513 0.076869,0 0.135325,-0.01513 0.175375,-0.04538 0.04045,-0.03025 0.060678,-0.07422 0.060678,-0.131908 0,-0.05325 -0.018812,-0.0948 -0.056429,-0.124647 -0.037225,-0.03025 -0.089209,-0.04538 -0.155952,-0.04538 l -0.105589,0 0,-0.100444 0.11044,0 c 0.06028,10e-7 0.106395,-0.0119 0.138354,-0.0357 0.031959,-0.0242 0.047938,-0.05889 0.047938,-0.104074 0,-0.04639 -0.016582,-0.08189 -0.049754,-0.106494 -0.032773,-0.02501 -0.079905,-0.03752 -0.141389,-0.03752 -0.033579,0 -0.069584,0.0036 -0.108015,0.01089 -0.038438,0.0073 -0.080711,0.01856 -0.126826,0.03388 l 0,-0.108914 c 0.046522,-0.01291 0.090008,-0.02259 0.130465,-0.02904 0.040857,-0.0065 0.079287,-0.0097 0.115292,-0.0097 0.093052,2e-6 0.166674,0.02118 0.220888,0.06353 0.054207,0.04195 0.081314,0.09883 0.081314,0.170633 0,0.05002 -0.014368,0.09238 -0.043087,0.127066 -0.028719,0.03429 -0.069583,0.05809 -0.122577,0.0714 m 0.525507,0.384227 0.427808,0 0,0.102863 -0.57527,0 0,-0.102863 c 0.04653,-0.048 0.109838,-0.112343 0.189939,-0.193021 0.080508,-0.08108 0.131075,-0.13332 0.151703,-0.156716 0.039245,-0.04397 0.066548,-0.08108 0.081924,-0.111335 0.015776,-0.03066 0.023665,-0.06071 0.023665,-0.09016 0,-0.048 -0.016989,-0.08713 -0.050975,-0.117386 -0.033579,-0.03025 -0.077472,-0.04538 -0.131678,-0.04538 -0.038431,0 -0.079092,0.0067 -0.121967,0.01997 -0.042484,0.01331 -0.087989,0.03348 -0.136538,0.06051 l 0,-0.123437 c 0.049355,-0.01976 0.09547,-0.03469 0.138353,-0.04478 0.042883,-0.01008 0.082128,-0.01513 0.117726,-0.01513 0.09385,2e-6 0.168692,0.0234 0.224526,0.07019 0.055827,0.04679 0.08374,0.109319 0.08374,0.187575 0,0.03711 -0.00708,0.07241 -0.021238,0.10589 -0.013757,0.03308 -0.039041,0.07221 -0.075852,0.117385 -0.010118,0.0117 -0.04228,0.04558 -0.096487,0.101654 -0.054207,0.05567 -0.130669,0.133723 -0.229379,0.234167 m 1.022492,-0.694029 -0.309479,0.48225 0.309479,0 0,-0.48225 m -0.032162,-0.106494 0.154137,0 0,0.588744 0.129252,0 0,0.101654 -0.129252,0 0,0.212988 -0.121975,0 0,-0.212988 -0.408995,0 0,-0.117991 0.376833,-0.572407 m 0.487891,0 0.4812083,0 0,0.102864 -0.3689533,0 0,0.22146 c 0.017803,-0.0061 0.035606,-0.01049 0.053401,-0.01331 0.017803,-0.0032 0.035605,-0.0048 0.0534,-0.0048 0.101136,10e-7 0.181237,0.02763 0.2403033,0.0829 0.059066,0.05527 0.088599,0.130093 0.088599,0.224486 0,0.09722 -0.030347,0.172851 -0.091025,0.226905 -0.060686,0.05365 -0.1462413,0.08048 -0.2566893,0.08048 -0.038024,0 -0.076861,-0.0032 -0.116505,-0.0097 -0.039244,-0.0065 -0.079897,-0.01614 -0.121974,-0.02905 l 0,-0.122831 c 0.036411,0.01977 0.074036,0.03449 0.112873,0.04417 0.03883,0.0097 0.079898,0.01452 0.12318,0.01452 0.069991,0 0.12541,-0.01835 0.166274,-0.05506 0.040857,-0.03671 0.061289,-0.08653 0.061289,-0.149455 0,-0.06293 -0.020432,-0.112747 -0.061289,-0.149455 -0.040864,-0.03671 -0.096283,-0.05506 -0.166274,-0.05506 -0.032765,0 -0.065538,0.0036 -0.098303,0.01089 -0.032366,0.0073 -0.065537,0.01856 -0.099515,0.03388 l 0,-0.453811 m 1.4478736,0.08047 c -0.06311,10e-7 -0.110644,0.03106 -0.142603,0.09318 -0.03156,0.06172 -0.04734,0.154699 -0.04734,0.278942 0,0.12384 0.01578,0.216821 0.04734,0.278942 0.03196,0.06172 0.07949,0.09258 0.142603,0.09258 0.06351,0 0.11105,-0.03086 0.142602,-0.09258 0.03196,-0.06212 0.04794,-0.155102 0.04794,-0.278942 0,-0.124243 -0.01598,-0.217224 -0.04794,-0.278942 -0.03155,-0.06212 -0.07909,-0.09318 -0.142602,-0.09318 m 0,-0.09681 c 0.101542,2e-6 0.179014,0.04014 0.232414,0.120412 0.0538,0.07987 0.0807,0.196047 0.0807,0.348527 0,0.152077 -0.0269,0.268253 -0.0807,0.348527 -0.0534,0.07987 -0.130872,0.119806 -0.232414,0.119806 -0.101543,0 -0.179218,-0.03993 -0.233017,-0.119806 -0.0534,-0.08027 -0.0801,-0.19645 -0.0801,-0.348527 0,-0.15248 0.0267,-0.268656 0.0801,-0.348527 0.0538,-0.08027 0.131474,-0.12041 0.233017,-0.120412 m 0.530359,0.01634 0.481208,0 0,0.102864 -0.368945,0 0,0.22146 c 0.0178,-0.0061 0.0356,-0.01049 0.0534,-0.01331 0.0178,-0.0032 0.0356,-0.0048 0.0534,-0.0048 0.101135,1e-6 0.181236,0.02763 0.240302,0.0829 0.05906,0.05527 0.08859,0.130093 0.08859,0.224486 0,0.09722 -0.03034,0.172851 -0.09102,0.226905 -0.06069,0.05365 -0.14625,0.08048 -0.25669,0.08048 -0.03802,0 -0.07686,-0.0032 -0.116512,-0.0097 -0.03924,-0.0065 -0.0799,-0.01614 -0.121967,-0.02905 l 0,-0.122831 c 0.03641,0.01977 0.07403,0.03449 0.112866,0.04417 0.03884,0.0097 0.0799,0.01452 0.123188,0.01452 0.06998,0 0.12541,-0.01835 0.166266,-0.05506 0.04086,-0.03671 0.06129,-0.08653 0.06129,-0.149455 0,-0.06293 -0.02043,-0.112747 -0.06129,-0.149455 -0.04086,-0.03671 -0.09628,-0.05506 -0.166266,-0.05506 -0.03277,0 -0.06554,0.0036 -0.0983,0.01089 -0.03237,0.0073 -0.06554,0.01856 -0.09952,0.03388 l 0,-0.453811 m 0.791298,0 0.481208,0 0,0.102864 -0.368945,0 0,0.22146 c 0.01779,-0.0061 0.0356,-0.01049 0.0534,-0.01331 0.01779,-0.0032 0.0356,-0.0048 0.0534,-0.0048 0.101136,1e-6 0.181237,0.02763 0.240295,0.0829 0.05907,0.05527 0.0886,0.130093 0.0886,0.224486 0,0.09722 -0.03034,0.172851 -0.09103,0.226905 -0.06068,0.05365 -0.146241,0.08048 -0.256681,0.08048 -0.03803,0 -0.07687,-0.0032 -0.116512,-0.0097 -0.03924,-0.0065 -0.0799,-0.01614 -0.121967,-0.02905 l 0,-0.122831 c 0.0364,0.01977 0.07403,0.03449 0.112866,0.04417 0.03884,0.0097 0.0799,0.01452 0.123187,0.01452 0.06998,0 0.125402,-0.01835 0.166267,-0.05506 0.04086,-0.03671 0.06129,-0.08653 0.06129,-0.149455 0,-0.06293 -0.02043,-0.112747 -0.06129,-0.149455 -0.04087,-0.03671 -0.09628,-0.05506 -0.166267,-0.05506 -0.03277,0 -0.06554,0.0036 -0.09831,0.01089 -0.03237,0.0073 -0.06554,0.01856 -0.09952,0.03388 l 0,-0.453811 m 0.759135,0 0.582547,0 0,0.05204 -0.328902,0.851349 -0.128039,0 0.309479,-0.800522 -0.435085,0 0,-0.102864 m 1.219105,0 0.481208,0 0,0.102864 -0.368952,0 0,0.22146 c 0.0178,-0.0061 0.03561,-0.01049 0.0534,-0.01331 0.0178,-0.0032 0.03561,-0.0048 0.0534,-0.0048 0.101136,10e-7 0.181236,0.02763 0.240303,0.0829 0.05907,0.05527 0.0886,0.130093 0.0886,0.224486 0,0.09722 -0.03035,0.172851 -0.09103,0.226905 -0.06069,0.05365 -0.146249,0.08048 -0.256689,0.08048 -0.03802,0 -0.07686,-0.0032 -0.116505,-0.0097 -0.03924,-0.0065 -0.0799,-0.01614 -0.121975,-0.02905 l 0,-0.122831 c 0.03641,0.01977 0.07404,0.03449 0.112874,0.04417 0.03883,0.0097 0.0799,0.01452 0.12318,0.01452 0.06999,0 0.12541,-0.01835 0.166266,-0.05506 0.04087,-0.03671 0.06129,-0.08653 0.0613,-0.149455 -8e-6,-0.06293 -0.02043,-0.112747 -0.0613,-0.149455 -0.04086,-0.03671 -0.09628,-0.05506 -0.166266,-0.05506 -0.03277,0 -0.06554,0.0036 -0.0983,0.01089 -0.03237,0.0073 -0.06554,0.01856 -0.09952,0.03388 l 0,-0.453811 m 0.811315,0.800523 0.200253,0 0,-0.689188 -0.217852,0.04357 0,-0.111335 0.216639,-0.04357 0.122577,0 0,0.800523 0.200252,0 0,0.102863 -0.521869,0 0,-0.102863 m 1.032203,-0.720048 c -0.06311,1e-6 -0.110643,0.03106 -0.142602,0.09318 -0.03155,0.06172 -0.04733,0.154699 -0.04733,0.278942 0,0.12384 0.01578,0.216821 0.04733,0.278942 0.03196,0.06172 0.07949,0.09258 0.142602,0.09258 0.06351,0 0.111051,-0.03086 0.142603,-0.09258 0.03196,-0.06212 0.04794,-0.155102 0.04794,-0.278942 0,-0.124243 -0.01598,-0.217224 -0.04794,-0.278942 -0.03155,-0.06212 -0.07909,-0.09318 -0.142603,-0.09318 m 0,-0.09681 c 0.101543,2e-6 0.179014,0.04014 0.232415,0.120412 0.0538,0.07987 0.0807,0.196047 0.0807,0.348527 0,0.152077 -0.0269,0.268253 -0.0807,0.348527 -0.0534,0.07987 -0.130872,0.119806 -0.232415,0.119806 -0.101542,0 -0.179209,-0.03993 -0.233017,-0.119806 -0.0534,-0.08027 -0.0801,-0.19645 -0.0801,-0.348527 0,-0.15248 0.0267,-0.268656 0.0801,-0.348527 0.05381,-0.08027 0.131475,-0.12041 0.233017,-0.120412 m 0.806464,0.419322 c -0.05501,10e-7 -0.09871,0.01876 -0.131068,0.05627 -0.03196,0.03751 -0.04794,0.08895 -0.04794,0.154296 0,0.06494 0.01598,0.116377 0.04794,0.154295 0.03236,0.03751 0.07606,0.05627 0.131068,0.05627 0.05502,0 0.09851,-0.01876 0.130473,-0.05627 0.03236,-0.03792 0.04854,-0.08935 0.04854,-0.154295 0,-0.06535 -0.01618,-0.116781 -0.04854,-0.154296 -0.03196,-0.03751 -0.07545,-0.05627 -0.130473,-0.05627 m 0.243339,-0.383017 0,0.111335 c -0.03075,-0.01452 -0.0619,-0.02561 -0.09345,-0.03328 -0.03115,-0.0077 -0.06209,-0.0115 -0.09284,-0.0115 -0.08091,0 -0.142806,0.02723 -0.185689,0.08169 -0.04248,0.05446 -0.06675,0.136749 -0.07282,0.246873 0.02387,-0.03509 0.0538,-0.06192 0.08981,-0.08048 0.036,-0.01896 0.07565,-0.02844 0.118938,-0.02844 0.09102,1e-6 0.162831,0.02763 0.215418,0.0829 0.053,0.05486 0.0795,0.12969 0.0795,0.224486 0,0.09278 -0.02751,0.167204 -0.08253,0.223275 -0.05502,0.05607 -0.128243,0.08411 -0.219675,0.08411 -0.104775,0 -0.184876,-0.03993 -0.240295,-0.119806 -0.05543,-0.08027 -0.08314,-0.19645 -0.08314,-0.348527 0,-0.142799 0.03398,-0.256554 0.101949,-0.341266 0.06796,-0.08511 0.159185,-0.127671 0.27367,-0.127673 0.03075,2e-6 0.0617,0.003 0.09285,0.0091 0.03155,0.0061 0.06432,0.01513 0.0983,0.02723 m 0.667499,-0.01997 0.481214,0 0,0.102864 -0.368953,0 0,0.22146 c 0.0178,-0.0061 0.03561,-0.01049 0.0534,-0.01331 0.0178,-0.0032 0.03561,-0.0048 0.0534,-0.0048 0.101135,1e-6 0.181236,0.02763 0.240302,0.0829 0.05907,0.05527 0.0886,0.130093 0.0886,0.224486 0,0.09722 -0.03035,0.172851 -0.09103,0.226905 -0.06069,0.05365 -0.146249,0.08048 -0.256689,0.08048 -0.03802,0 -0.07686,-0.0032 -0.116504,-0.0097 -0.03925,-0.0065 -0.0799,-0.01614 -0.121973,-0.02905 l 0,-0.122831 c 0.03641,0.01977 0.07403,0.03449 0.112872,0.04417 0.03883,0.0097 0.0799,0.01452 0.123179,0.01452 0.06999,0 0.12541,-0.01835 0.166267,-0.05506 0.04086,-0.03671 0.06129,-0.08653 0.0613,-0.149455 -7e-6,-0.06293 -0.02043,-0.112747 -0.0613,-0.149455 -0.04086,-0.03671 -0.09628,-0.05506 -0.166267,-0.05506 -0.03277,0 -0.06554,0.0036 -0.0983,0.01089 -0.03237,0.0073 -0.06554,0.01856 -0.09952,0.03388 l 0,-0.453811 m 1.126873,0.106494 -0.309479,0.48225 0.309479,0 0,-0.48225 m -0.03216,-0.106494 0.15413,0 0,0.588744 0.129252,0 0,0.101654 -0.129252,0 0,0.212988 -0.121967,0 0,-0.212988 -0.409003,0 0,-0.117991 0.37684,-0.572407 m 0.748814,0.08047 c -0.06311,1e-6 -0.110643,0.03106 -0.142602,0.09318 -0.03155,0.06172 -0.04733,0.154699 -0.04733,0.278942 0,0.12384 0.01578,0.216821 0.04733,0.278942 0.03196,0.06172 0.07949,0.09258 0.142602,0.09258 0.06351,0 0.11105,-0.03086 0.142602,-0.09258 0.03196,-0.06212 0.04794,-0.155102 0.04794,-0.278942 0,-0.124243 -0.01598,-0.217224 -0.04794,-0.278942 -0.03155,-0.06212 -0.07909,-0.09318 -0.142602,-0.09318 m 0,-0.09681 c 0.101543,2e-6 0.179014,0.04014 0.232415,0.120412 0.0538,0.07987 0.0807,0.196047 0.0807,0.348527 0,0.152077 -0.0269,0.268253 -0.0807,0.348527 -0.0534,0.07987 -0.130872,0.119806 -0.232415,0.119806 -0.101543,0 -0.179218,-0.03993 -0.233017,-0.119806 -0.0534,-0.08027 -0.0801,-0.19645 -0.0801,-0.348527 0,-0.15248 0.0267,-0.268656 0.0801,-0.348527 0.0538,-0.08027 0.131474,-0.12041 0.233017,-0.120412 m 0.806463,0.419322 c -0.05501,10e-7 -0.09871,0.01876 -0.131067,0.05627 -0.03196,0.03751 -0.04794,0.08895 -0.04794,0.154296 0,0.06494 0.01598,0.116377 0.04794,0.154295 0.03236,0.03751 0.07606,0.05627 0.131067,0.05627 0.05502,0 0.09851,-0.01876 0.130466,-0.05627 0.03237,-0.03792 0.04855,-0.08935 0.04855,-0.154295 0,-0.06535 -0.01618,-0.116781 -0.04855,-0.154296 -0.03196,-0.03751 -0.07545,-0.05627 -0.130466,-0.05627 m 0.243339,-0.383017 0,0.111335 c -0.03075,-0.01452 -0.0619,-0.02561 -0.09345,-0.03328 -0.03115,-0.0077 -0.0621,-0.0115 -0.09284,-0.0115 -0.08092,0 -0.142806,0.02723 -0.18569,0.08169 -0.04248,0.05446 -0.06675,0.136749 -0.07282,0.246873 0.02387,-0.03509 0.05381,-0.06192 0.08981,-0.08048 0.03601,-0.01896 0.07565,-0.02844 0.118939,-0.02844 0.09103,1e-6 0.162831,0.02763 0.215418,0.0829 0.053,0.05486 0.0795,0.12969 0.0795,0.224486 0,0.09278 -0.02751,0.167204 -0.08253,0.223275 -0.05502,0.05607 -0.128243,0.08411 -0.219675,0.08411 -0.104774,0 -0.184875,-0.03993 -0.240295,-0.119806 -0.05543,-0.08027 -0.08314,-0.19645 -0.08314,-0.348527 0,-0.142799 0.03398,-0.256554 0.101942,-0.341266 0.06796,-0.08511 0.159192,-0.127671 0.273678,-0.127673 0.03075,2e-6 0.0617,0.003 0.09285,0.0091 0.03155,0.0061 0.06432,0.01513 0.0983,0.02723 m 0.6675,-0.01997 0.481216,0 0,0.102864 -0.368953,0 0,0.22146 c 0.0178,-0.0061 0.03561,-0.01049 0.0534,-0.01331 0.0178,-0.0032 0.0356,-0.0048 0.0534,-0.0048 0.101135,1e-6 0.181236,0.02763 0.240302,0.0829 0.05907,0.05527 0.08859,0.130093 0.0886,0.224486 -8e-6,0.09722 -0.03035,0.172851 -0.09103,0.226905 -0.06069,0.05365 -0.146249,0.08048 -0.256689,0.08048 -0.03802,0 -0.07686,-0.0032 -0.116504,-0.0097 -0.03925,-0.0065 -0.0799,-0.01614 -0.121975,-0.02905 l 0,-0.122831 c 0.03641,0.01977 0.07404,0.03449 0.112866,0.04417 0.03884,0.0097 0.07991,0.01452 0.123187,0.01452 0.06999,0 0.12541,-0.01835 0.166267,-0.05506 0.04086,-0.03671 0.06129,-0.08653 0.06129,-0.149455 0,-0.06293 -0.02042,-0.112747 -0.06129,-0.149455 -0.04086,-0.03671 -0.09628,-0.05506 -0.166267,-0.05506 -0.03277,0 -0.06554,0.0036 -0.0983,0.01089 -0.03237,0.0073 -0.06554,0.01856 -0.09952,0.03388 l 0,-0.453811 m 1.126867,0.106494 -0.30947,0.48225 0.30947,0 0,-0.48225 m -0.03215,-0.106494 0.15412,0 0,0.588744 0.12926,0 0,0.101654 -0.12926,0 0,0.212988 -0.12197,0 0,-0.212988 -0.409,0 0,-0.117991 0.37685,-0.572407 m 0.76398,0.402984 c -0.05502,10e-7 -0.09871,0.01876 -0.13107,0.05627 -0.03196,0.03751 -0.04794,0.08895 -0.04794,0.154296 0,0.06494 0.01598,0.116377 0.04794,0.154295 0.03236,0.03751 0.07605,0.05627 0.13107,0.05627 0.05502,0 0.09851,-0.01876 0.13047,-0.05627 0.03236,-0.03792 0.04854,-0.08935 0.04855,-0.154295 -10e-6,-0.06535 -0.01619,-0.116781 -0.04855,-0.154296 -0.03196,-0.03751 -0.07545,-0.05627 -0.13047,-0.05627 m 0.24333,-0.383017 0,0.111335 c -0.03074,-0.01452 -0.06189,-0.02561 -0.09345,-0.03328 -0.03114,-0.0077 -0.06209,-0.0115 -0.09284,-0.0115 -0.08091,0 -0.1428,0.02723 -0.18569,0.08169 -0.04247,0.05446 -0.06675,0.136749 -0.07281,0.246873 0.02386,-0.03509 0.0538,-0.06192 0.0898,-0.08048 0.03601,-0.01896 0.07566,-0.02844 0.11894,-0.02844 0.09103,1e-6 0.16283,0.02763 0.21543,0.0829 0.05299,0.05486 0.07949,0.12969 0.07949,0.224486 0,0.09278 -0.02751,0.167204 -0.08253,0.223275 -0.05502,0.05607 -0.12824,0.08411 -0.21967,0.08411 -0.10478,0 -0.18488,-0.03993 -0.2403,-0.119806 -0.05543,-0.08027 -0.08314,-0.19645 -0.08314,-0.348527 0,-0.142799 0.03399,-0.256554 0.10195,-0.341266 0.06797,-0.08511 0.15919,-0.127671 0.27368,-0.127673 0.03074,2e-6 0.06169,0.003 0.09284,0.0091 0.03155,0.0061 0.06433,0.01513 0.0983,0.02723 m 0.27186,-0.01997 0.48121,0 0,0.102864 -0.36895,0 0,0.22146 c 0.0178,-0.0061 0.03561,-0.01049 0.0534,-0.01331 0.01781,-0.0032 0.0356,-0.0048 0.0534,-0.0048 0.10114,10e-7 0.18124,0.02763 0.24031,0.0829 0.05906,0.05527 0.08859,0.130093 0.08859,0.224486 0,0.09722 -0.03034,0.172851 -0.09102,0.226905 -0.06069,0.05365 -0.14625,0.08048 -0.25669,0.08048 -0.03802,0 -0.07686,-0.0032 -0.1165,-0.0097 -0.03925,-0.0065 -0.0799,-0.01614 -0.12198,-0.02905 l 0,-0.122831 c 0.03641,0.01977 0.07404,0.03449 0.11287,0.04417 0.03883,0.0097 0.0799,0.01452 0.12318,0.01452 0.07,0 0.12541,-0.01835 0.16627,-0.05506 0.04087,-0.03671 0.06129,-0.08653 0.06129,-0.149455 0,-0.06293 -0.02042,-0.112747 -0.06129,-0.149455 -0.04086,-0.03671 -0.09627,-0.05506 -0.16627,-0.05506 -0.03276,0 -0.06553,0.0036 -0.0983,0.01089 -0.03236,0.0073 -0.06554,0.01856 -0.09952,0.03388 l 0,-0.453811 m 1.15478,0 0.58255,0 0,0.05204 -0.3289,0.851349 -0.12804,0 0.30948,-0.800522 -0.43509,0 0,-0.102864 m 1.0844,0.08047 c -0.06311,1e-6 -0.11065,0.03106 -0.14261,0.09318 -0.03156,0.06172 -0.04733,0.154699 -0.04733,0.278942 0,0.12384 0.01577,0.216821 0.04733,0.278942 0.03196,0.06172 0.0795,0.09258 0.14261,0.09258 0.06351,0 0.11104,-0.03086 0.1426,-0.09258 0.03196,-0.06212 0.04794,-0.155102 0.04794,-0.278942 0,-0.124243 -0.01598,-0.217224 -0.04794,-0.278942 -0.03156,-0.06212 -0.07909,-0.09318 -0.1426,-0.09318 m 0,-0.09681 c 0.10153,2e-6 0.179,0.04014 0.2324,0.120412 0.05381,0.07987 0.08072,0.196047 0.08072,0.348527 0,0.152077 -0.02691,0.268253 -0.08072,0.348527 -0.0534,0.07987 -0.13087,0.119806 -0.2324,0.119806 -0.10155,0 -0.17922,-0.03993 -0.23303,-0.119806 -0.0534,-0.08027 -0.0801,-0.19645 -0.0801,-0.348527 0,-0.15248 0.0267,-0.268656 0.0801,-0.348527 0.05381,-0.08027 0.13148,-0.12041 0.23303,-0.120412 m 0.80646,0.419322 c -0.05502,10e-7 -0.09871,0.01876 -0.13108,0.05627 -0.03195,0.03751 -0.04793,0.08895 -0.04793,0.154296 0,0.06494 0.01598,0.116377 0.04793,0.154295 0.03237,0.03751 0.07606,0.05627 0.13108,0.05627 0.05501,0 0.09851,-0.01876 0.13047,-0.05627 0.03235,-0.03792 0.04854,-0.08935 0.04854,-0.154295 0,-0.06535 -0.01619,-0.116781 -0.04854,-0.154296 -0.03196,-0.03751 -0.07546,-0.05627 -0.13047,-0.05627 m 0.24333,-0.383017 0,0.111335 c -0.03074,-0.01452 -0.0619,-0.02561 -0.09345,-0.03328 -0.03114,-0.0077 -0.06209,-0.0115 -0.09284,-0.0115 -0.08091,0 -0.14281,0.02723 -0.18569,0.08169 -0.04248,0.05446 -0.06675,0.136749 -0.07281,0.246873 0.02386,-0.03509 0.05379,-0.06192 0.0898,-0.08048 0.036,-0.01896 0.07566,-0.02844 0.11894,-0.02844 0.09102,1e-6 0.16283,0.02763 0.21542,0.0829 0.053,0.05486 0.07949,0.12969 0.07949,0.224486 0,0.09278 -0.0275,0.167204 -0.08252,0.223275 -0.05502,0.05607 -0.12825,0.08411 -0.21967,0.08411 -0.10478,0 -0.18488,-0.03993 -0.2403,-0.119806 -0.05543,-0.08027 -0.08314,-0.19645 -0.08314,-0.348527 0,-0.142799 0.03399,-0.256554 0.10195,-0.341266 0.06796,-0.08511 0.15918,-0.127671 0.27367,-0.127673 0.03075,2e-6 0.0617,0.003 0.09285,0.0091 0.03155,0.0061 0.06432,0.01513 0.0983,0.02723 m 0.27186,-0.01997 0.48121,0 0,0.102864 -0.36895,0 0,0.22146 c 0.0178,-0.0061 0.03561,-0.01049 0.0534,-0.01331 0.0178,-0.0032 0.03561,-0.0048 0.0534,-0.0048 0.10114,1e-6 0.18124,0.02763 0.2403,0.0829 0.05907,0.05527 0.0886,0.130093 0.0886,0.224486 0,0.09722 -0.03034,0.172851 -0.09102,0.226905 -0.06069,0.05365 -0.14625,0.08048 -0.25669,0.08048 -0.03803,0 -0.07686,-0.0032 -0.11651,-0.0097 -0.03924,-0.0065 -0.07989,-0.01614 -0.12197,-0.02905 l 0,-0.122831 c 0.03641,0.01977 0.07404,0.03449 0.11287,0.04417 0.03883,0.0097 0.0799,0.01452 0.12318,0.01452 0.06999,0 0.12541,-0.01835 0.16627,-0.05506 0.04086,-0.03671 0.06129,-0.08653 0.0613,-0.149455 -10e-6,-0.06293 -0.02044,-0.112747 -0.0613,-0.149455 -0.04086,-0.03671 -0.09628,-0.05506 -0.16627,-0.05506 -0.03276,0 -0.06554,0.0036 -0.0983,0.01089 -0.03237,0.0073 -0.06554,0.01856 -0.09952,0.03388 l 0,-0.453811 m 1.15478,0 0.58255,0 0,0.05204 -0.3289,0.851349 -0.12804,0 0.30948,-0.800522 -0.43509,0 0,-0.102864 m 1.09956,0.402984 c -0.05502,1e-6 -0.09871,0.01876 -0.13107,0.05627 -0.03196,0.03751 -0.04794,0.08895 -0.04794,0.154296 0,0.06494 0.01598,0.116377 0.04794,0.154295 0.03236,0.03751 0.07605,0.05627 0.13107,0.05627 0.05502,0 0.09851,-0.01876 0.13047,-0.05627 0.03236,-0.03792 0.04854,-0.08935 0.04854,-0.154295 0,-0.06535 -0.01618,-0.116781 -0.04854,-0.154296 -0.03196,-0.03751 -0.07545,-0.05627 -0.13047,-0.05627 m 0.24334,-0.383017 0,0.111335 c -0.03075,-0.01452 -0.0619,-0.02561 -0.09345,-0.03328 -0.03115,-0.0077 -0.0621,-0.0115 -0.09285,-0.0115 -0.08091,0 -0.14281,0.02723 -0.18569,0.08169 -0.04248,0.05446 -0.06675,0.136749 -0.07281,0.246873 0.02386,-0.03509 0.0538,-0.06192 0.08981,-0.08048 0.036,-0.01896 0.07565,-0.02844 0.11894,-0.02844 0.09101,10e-7 0.16282,0.02763 0.21541,0.0829 0.053,0.05486 0.07949,0.12969 0.07949,0.224486 0,0.09278 -0.0275,0.167204 -0.08252,0.223275 -0.05502,0.05607 -0.12824,0.08411 -0.21967,0.08411 -0.10477,0 -0.18487,-0.03993 -0.2403,-0.119806 -0.05542,-0.08027 -0.08313,-0.19645 -0.08313,-0.348527 0,-0.142799 0.03398,-0.256554 0.10194,-0.341266 0.06796,-0.08511 0.15919,-0.127671 0.27368,-0.127673 0.03074,2e-6 0.06169,0.003 0.09284,0.0091 0.03156,0.0061 0.06432,0.01513 0.09831,0.02723 m 0.23969,-0.01997 0.58255,0 0,0.05204 -0.3289,0.851349 -0.12803,0 0.30947,-0.800522 -0.43509,0 0,-0.102864 m 0.82589,0.884629 0,-0.111335 c 0.03074,0.01452 0.06189,0.02562 0.09344,0.03328 0.03156,0.0077 0.06251,0.0115 0.09285,0.0115 0.08091,0 0.1426,-0.02703 0.18508,-0.08108 0.04288,-0.05446 0.06735,-0.13695 0.07342,-0.247479 -0.02346,0.03469 -0.05319,0.06132 -0.0892,0.07987 -0.036,0.01856 -0.07585,0.02783 -0.11954,0.02783 -0.09062,0 -0.16243,-0.02723 -0.21542,-0.08169 -0.0526,-0.05486 -0.07889,-0.129688 -0.07889,-0.224485 0,-0.09278 0.02751,-0.167204 0.08252,-0.223275 0.05503,-0.05607 0.12825,-0.08411 0.21968,-0.08411 0.10477,2e-6 0.18467,0.04014 0.23969,0.120412 0.05542,0.07987 0.08313,0.196047 0.08314,0.348527 -10e-6,0.142396 -0.03399,0.256151 -0.10195,0.341266 -0.06756,0.08471 -0.15858,0.127067 -0.27307,0.127067 -0.03074,0 -0.0619,-0.003 -0.09345,-0.0091 -0.03156,-0.0061 -0.06432,-0.01513 -0.0983,-0.02723 m 0.24394,-0.383016 c 0.05501,0 0.09851,-0.01876 0.13046,-0.05627 0.03236,-0.03751 0.04855,-0.08895 0.04855,-0.154296 0,-0.06495 -0.01619,-0.116174 -0.04855,-0.15369 -0.03195,-0.03792 -0.07545,-0.05688 -0.13046,-0.05688 -0.05502,10e-7 -0.09871,0.01896 -0.13108,0.05688 -0.03195,0.03752 -0.04793,0.08874 -0.04793,0.15369 0,0.06535 0.01598,0.116781 0.04793,0.154296 0.03237,0.03751 0.07606,0.05627 0.13108,0.05627 m 0.54735,0.383016 0,-0.111335 c 0.03074,0.01452 0.0619,0.02562 0.09345,0.03328 0.03155,0.0077 0.0625,0.0115 0.09285,0.0115 0.0809,0 0.1426,-0.02703 0.18508,-0.08108 0.04288,-0.05446 0.06735,-0.13695 0.07342,-0.247479 -0.02347,0.03469 -0.0532,0.06132 -0.0892,0.07987 -0.036,0.01856 -0.07586,0.02783 -0.11955,0.02783 -0.09062,0 -0.16242,-0.02723 -0.21542,-0.08169 -0.05259,-0.05486 -0.07888,-0.129688 -0.07888,-0.224485 0,-0.09278 0.0275,-0.167204 0.08252,-0.223275 0.05502,-0.05607 0.12825,-0.08411 0.21967,-0.08411 0.10478,2e-6 0.18468,0.04014 0.2397,0.120412 0.05542,0.07987 0.08313,0.196047 0.08313,0.348527 0,0.142396 -0.03398,0.256151 -0.10194,0.341266 -0.06757,0.08471 -0.15858,0.127067 -0.27308,0.127067 -0.03074,0 -0.06189,-0.003 -0.09345,-0.0091 -0.03155,-0.0061 -0.06432,-0.01513 -0.0983,-0.02723 m 0.24394,-0.383016 c 0.05502,0 0.09851,-0.01876 0.13046,-0.05627 0.03237,-0.03751 0.04855,-0.08895 0.04855,-0.154296 0,-0.06495 -0.01618,-0.116174 -0.04855,-0.15369 -0.03195,-0.03792 -0.07544,-0.05688 -0.13046,-0.05688 -0.05501,10e-7 -0.09871,0.01896 -0.13107,0.05688 -0.03196,0.03752 -0.04794,0.08874 -0.04794,0.15369 0,0.06535 0.01598,0.116781 0.04794,0.154296 0.03236,0.03751 0.07606,0.05627 0.13107,0.05627"
       id="text7050"
       style="font-size:1.58812129px;font-style:normal;font-variant:normal;font-weight:normal;font-stretch:normal;line-height:120.00000477%;writing-mode:lr-tb;text-anchor:start;fill:black;fill-opacity:1;stroke:none;font-family:Bitstream Vera Sans" />
    <rect
       width="9.9773989"
       height="11.70446"
       rx="0.31249964"
       ry="0.31249976"
       x="5.0519104"
       y="19.740776"
       id="rect6553"
       style="fill:url(#linearGradient1992);fill-opacity:1;fill-rule:evenodd;stroke:none;stroke-width:1;marker:none;visibility:visible;display:inline;overflow:visible" />
    <g
       transform="matrix(0.300427,0,0,0.299566,-1.239336,19.26775)"
       id="g6935"
       style="fill:#939393;fill-opacity:1;stroke:none">
      <path
         d="m 50.301157,40.747425 c 1.035639,-2.982476 0.176777,-8.892289 -6.540737,-13.488483 l -12.551146,0 c -6.717514,4.24264 -7.556991,10.044831 -6.010407,13.435028 0,0 25.10229,0.05345 25.10229,0.05345 z"
         id="path2329"
         style="fill:#939393;fill-opacity:1;fill-rule:evenodd;stroke:none;stroke-width:2.29990602px;marker:none;visibility:visible;display:inline;overflow:visible" />
      <path
         d="m 39.774755,19.008621 a 8.6620579,8.6620579 0 1 1 -17.324115,0 8.6620579,8.6620579 0 1 1 17.324115,0 z"
         transform="translate(6.407083,1.742408)"
         id="path2327"
         style="fill:#939393;fill-opacity:1;fill-rule:evenodd;stroke:none;stroke-width:2.29990602px;marker:none;visibility:visible;display:inline;overflow:visible" />
    </g>
    <rect
       width="32.000011"
       height="22.000008"
       rx="1.7777265"
       ry="1.7777265"
       x="3.500001"
       y="17.499992"
       id="rect6555"
       style="fill:none;stroke:white;stroke-width:0.99999982;stroke-linecap:butt;stroke-linejoin:miter;stroke-miterlimit:4;stroke-opacity:1;stroke-dasharray:none;stroke-dashoffset:0;marker:none;visibility:visible;display:inline;overflow:visible" />
  </g>
  <rect
     width="36.943565"
     height="24.959999"
     rx="2.9880826"
     ry="2.8599982"
     x="4.5564332"
     y="13.5"
     id="rect2373"
     style="fill:url(#linearGradient2934);fill-opacity:1;fill-rule:evenodd;stroke:#939393;stroke-width:1.00000012;stroke-linecap:butt;stroke-linejoin:miter;stroke-miterlimit:4;stroke-opacity:1;stroke-dasharray:none;stroke-dashoffset:0;marker:none;visibility:visible;display:inline;overflow:visible" />
  <rect
     width="21.607288"
     height="2"
     rx="1.4404858"
     ry="1"
     x="14.392711"
     y="23"
     id="rect2377"
     style="opacity:0.3976608;fill:#8d8d8d;fill-opacity:1;fill-rule:evenodd;stroke:none;stroke-width:1;marker:none;visibility:visible;display:inline;overflow:visible" />
  <rect
     width="13.748988"
     height="2"
     rx="1.145749"
     ry="1"
     x="14.587043"
     y="26.194332"
     id="rect2379"
     style="opacity:0.3976608;fill:#8d8d8d;fill-opacity:1;fill-rule:evenodd;stroke:none;stroke-width:1;marker:none;visibility:visible;display:inline;overflow:visible" />
  <path
     d="M 13.761134,30.122596 L 13.761134,32.153846 L 15.761134,32.153846 L 15.761134,30.122596 L 13.761134,30.122596 L 13.761134,30.122596 z M 16.761134,30.122596 L 16.761134,32.153846 L 17.761134,32.153846 L 17.761134,30.122596 L 16.761134,30.122596 L 16.761134,30.122596 z M 18.761134,30.122596 L 18.761134,32.153846 L 20.761134,32.153846 L 20.761134,30.122596 L 18.761134,30.122596 L 18.761134,30.122596 z M 22.761134,30.122596 L 22.761134,32.153846 L 23.761134,32.153846 L 23.761134,30.122596 L 22.761134,30.122596 L 22.761134,30.122596 z M 24.761134,30.122596 L 24.761134,32.153846 L 26.761134,32.153846 L 26.761134,30.122596 L 24.761134,30.122596 L 24.761134,30.122596 z M 27.761134,30.122596 L 27.761134,32.153846 L 29.761134,32.153846 L 29.761134,30.122596 L 27.761134,30.122596 L 27.761134,30.122596 z M 33.761134,30.122596 L 33.761134,32.153846 L 34.761134,32.153846 L 34.761134,30.122596 L 33.761134,30.122596 L 33.761134,30.122596 z M 35.761134,30.122596 L 35.761134,32.153846 L 37.761134,32.153846 L 37.761134,30.122596 L 35.761134,30.122596 L 35.761134,30.122596 z M 11.761134,30.153846 L 11.761134,34.216346 L 12.761134,34.216346 L 12.761134,30.153846 L 11.761134,30.153846 z M 30.761134,30.153846 L 30.761134,32.185096 L 31.761134,32.185096 L 31.761134,30.153846 L 30.761134,30.153846 z"
     id="rect2383"
     style="opacity:0.48538011;fill:#000000;fill-opacity:1;fill-rule:evenodd;stroke:none;stroke-width:1;marker:none;visibility:visible;display:inline;overflow:visible" />
  <path
     d="M 14.217358,33.240358 C 14.9522,33.595439 13.265319,33.836482 14.23078,33.603947 C 13.798821,33.149773 14.492353,33.046146 13.870349,32.907626 C 14.017286,32.533818 14.716735,33.092646 14.217358,33.240358 z M 14.802676,33.639945 C 15.716748,33.551115 14.360786,34.018391 14.836806,33.490586 C 15.443197,33.203277 14.640871,32.700778 14.850566,32.83489 C 15.619384,32.726224 15.146376,33.471056 14.802676,33.639945 L 14.802676,33.639945 z M 15.941537,32.918163 C 15.280275,33.469373 16.106664,33.703524 15.941537,32.918163 z M 15.905717,32.807409 C 16.604875,33.240909 15.703423,34.120261 15.534636,33.326094 C 15.625506,33.130934 15.797261,32.991337 15.905717,32.807409 z M 16.449133,32.807409 C 16.717918,32.656032 17.135893,33.027986 16.592878,32.914388 C 17.033007,33.197057 17.145288,33.955469 16.510758,33.673188 C 17.519346,33.317336 16.156495,33.39285 16.449138,32.807409 L 16.449133,32.807409 L 16.449133,32.807409 z M 18.06181,32.891099 C 17.348281,33.138158 18.484546,34.045444 18.268123,33.159484 C 18.265623,33.051661 18.200663,32.880509 18.06181,32.891099 z M 18.06181,32.790414 C 19.150813,33.029446 17.474641,34.448785 17.723391,33.11084 C 17.749591,32.951038 17.880746,32.767773 18.06181,32.790414 z M 18.65253,32.807414 C 18.921315,32.656037 19.339286,33.027991 18.796271,32.914393 C 19.236415,33.197055 19.348679,33.95548 18.714151,33.673193 C 19.722728,33.31733 18.359864,33.392859 18.652531,32.807414 L 18.65253,32.807414 L 18.65253,32.807414 z M 19.53389,32.807411 C 19.802675,32.656034 20.220648,33.027988 19.677633,32.91439 C 20.117765,33.197051 20.230037,33.955475 19.595513,33.673192 C 20.604087,33.317333 19.241226,33.39285 19.533893,32.807411 L 19.53389,32.807411 L 19.53389,32.807411 z M 20.379429,32.807411 C 21.268203,32.27115 20.783708,34.021133 20.613019,33.511056 C 20.813748,33.158727 20.96498,32.803657 20.379429,32.807411 z M 21.73729,32.807412 C 22.006075,32.656035 22.424044,33.027989 21.881029,32.914391 C 22.321162,33.197063 22.433427,33.955476 21.798899,33.673194 C 22.807482,33.317344 21.444637,33.392852 21.737289,32.807412 L 21.73729,32.807412 z M 22.640946,33.639955 C 23.275852,33.646255 22.350901,32.454551 23.046837,32.93688 C 22.840557,33.265035 23.381851,34.159757 22.640946,33.639955 z M 23.790631,32.891106 C 23.077122,33.138172 24.213362,34.045442 23.996937,33.159491 C 23.994437,33.051673 23.929487,32.880509 23.790631,32.891106 z M 23.790631,32.790421 C 24.879634,33.029451 23.203465,34.448785 23.452211,33.110844 C 23.478401,32.95104 23.609566,32.767773 23.790631,32.790421 z M 24.688883,33.226519 C 23.862432,33.798116 25.489058,33.711432 24.688883,33.226519 z M 24.959919,32.828181 C 24.234713,33.041477 24.828171,33.141489 24.944209,33.385272 C 24.559906,34.722473 23.803549,32.383868 24.959919,32.828144 M 25.70339,32.807374 C 25.972173,32.655997 26.390156,33.027948 25.847136,32.914353 C 26.287272,33.19702 26.39954,33.955466 25.765006,33.673195 C 26.806118,33.299974 25.42368,33.419669 25.703376,32.807412 M 26.958506,32.918166 C 26.297244,33.469376 27.123633,33.703527 26.958506,32.918166 z M 26.922686,32.807412 C 27.621826,33.240926 26.720385,34.120254 26.551599,33.326096 C 26.642479,33.130937 26.814232,32.991343 26.922686,32.807412 z M 27.756727,32.891102 C 27.043206,33.138161 28.17946,34.045443 27.963033,33.159487 C 27.960533,33.051669 27.895583,32.880505 27.756727,32.891102 z M 27.756727,32.790417 C 28.845736,33.029447 27.169556,34.448789 27.418304,33.110842 C 27.444494,32.951037 27.575661,32.767772 27.756727,32.790417 z M 28.654976,33.226519 C 27.828536,33.798098 29.455127,33.711448 28.654976,33.226519 z M 28.926011,32.828181 C 28.200798,33.041474 28.794263,33.141491 28.910301,33.385273 C 28.526002,34.722476 27.769626,32.383857 28.926011,32.828144 M 29.669483,32.807374 C 29.938265,32.655997 30.356253,33.027948 29.813231,32.914353 C 30.253361,33.197015 30.365643,33.955466 29.731121,33.673195 C 30.772237,33.299972 29.389793,33.419671 29.669491,32.807412 M 30.924614,32.918166 C 30.26337,33.469378 31.089738,33.703522 30.924614,32.918166 z M 30.888804,32.807412 C 31.587932,33.240945 30.686491,34.120246 30.517706,33.326096 C 30.608586,33.130934 30.780338,32.991336 30.888804,32.807412 z M 31.739737,33.226516 C 30.913272,33.798108 32.539913,33.711434 31.739737,33.226516 z M 32.010763,32.828178 C 31.285558,33.041477 31.879015,33.141482 31.995053,33.385266 C 31.610768,34.722482 30.854378,32.383876 32.010763,32.828144 M 32.313564,32.807374 C 32.582348,32.655997 33.000322,33.02795 32.457306,32.914353 C 32.897448,33.197013 33.00972,33.955468 32.375186,33.673195 C 33.416303,33.299975 32.033861,33.41967 32.313556,32.807412"
     id="path2413"
     style="font-size:1.58812129px;font-style:normal;font-variant:normal;font-weight:normal;font-stretch:normal;line-height:120.00000477%;writing-mode:lr-tb;text-anchor:start;fill:#000000;fill-opacity:1;stroke:none;display:inline;font-family:Bitstream Vera Sans" />
  <rect
     width="35.028584"
     height="23.000013"
     rx="1.9459757"
     ry="1.8585324"
     x="5.499999"
     y="14.499997"
     id="rect2423"
     style="fill:none;stroke:white;stroke-width:0.99999994;stroke-linecap:butt;stroke-linejoin:miter;stroke-miterlimit:4;stroke-opacity:1;stroke-dasharray:none;stroke-dashoffset:0;marker:none;visibility:visible;display:inline;overflow:visible" />
  <path
     sodipodi:type="arc"
     style="opacity:1;fill:#ffffff;fill-opacity:1;fill-rule:evenodd;stroke:#808080;stroke-opacity:1"
     id="path3227"
     sodipodi:cx="8.4048586"
     sodipodi:cy="25.797571"
     sodipodi:rx="2.0890689"
     sodipodi:ry="2.1862347"
     d="M 10.493927,25.797571 A 2.0890689,2.1862347 0 1 1 6.3157897,25.797571 A 2.0890689,2.1862347 0 1 1 10.493927,25.797571 z"
     transform="translate(0.6801619,9.7165992e-2)" />
  <text
     xml:space="preserve"
     style="font-size:4px;font-style:normal;font-weight:normal;fill:#000000;fill-opacity:1;stroke:none;stroke-width:1px;stroke-linecap:butt;stroke-linejoin:miter;stroke-opacity:1;font-family:Bitstream Vera Sans"
     x="14.574899"
     y="21.959515"
     id="text3229"><tspan
       sodipodi:role="line"
       id="tspan3231"
       x="14.574899"
       y="21.959515">PC15043</tspan></text>
  <g
     transform="matrix(2.362979e-2,0,0,2.179773e-2,-31.797251,91.139053)"
     id="g11139"
     style="display:inline" />
  <g
     transform="matrix(2.362979e-2,0,0,2.179773e-2,-31.797251,91.139053)"
     id="g11147"
     style="display:inline" />
  <g
     transform="matrix(0.868211,0,0,0.8815858,-281.44013,-44.909465)"
     id="g7440"
     style="opacity:0.48858445;display:inline;enable-background:new" />
  <path
     d="M 41.82215,41.663572 C 41.82215,42.736251 39.683275,43.605828 37.044839,43.605828 C 34.406402,43.605828 32.267527,42.736251 32.267527,41.663572 C 32.267527,40.590894 34.406402,39.721316 37.044839,39.721316 C 39.683275,39.721316 41.82215,40.590894 41.82215,41.663572 z"
     id="path6765"
     style="opacity:0.25;fill:url(#radialGradient3013);fill-opacity:1;stroke:none" />
  <g
     id="g3058"
     transform="matrix(1.2807859,0,0,1.2312744,-19.160979,7.8960694)">
    <path
       style="fill:url(#linearGradient3083);fill-opacity:1;fill-rule:evenodd;stroke:url(#linearGradient3085);stroke-width:0.79631388;stroke-linecap:round;stroke-linejoin:round;stroke-miterlimit:4;stroke-dasharray:none;stroke-dashoffset:0.3612;stroke-opacity:1;display:inline;enable-background:new"
       id="path6912"
       d="M 25.135985,0.09386855 C 25.031628,0.088590601 24.927034,0.1315 24.857308,0.2152595 C 24.764332,0.32691237 24.764474,0.49255974 24.837402,0.619896 L 26.788144,4.1604654 C 26.963314,4.4787267 26.871414,4.8950322 26.589089,5.3136794 C 26.30409,5.7362941 25.82233,6.1513203 25.215607,6.4871253 C 24.608762,6.8229833 24.010993,7.0159729 23.503732,7.0333845 C 22.999467,7.0507548 22.604447,6.9073833 22.428834,6.5882844 L 20.458187,3.0072513 C 20.40349,2.9081788 20.310746,2.85855 20.199415,2.8453967 C 20.088093,2.8322611 19.975099,2.862717 19.900832,2.9465559 C 19.860721,2.9901064 19.834928,3.0504639 19.82121,3.1084105 C 19.443434,4.7615161 19.622202,6.662114 20.338754,7.9640485 C 21.317332,9.7420841 23.359215,10.588898 25.354946,10.230013 C 26.170457,10.508594 27.556433,10.992538 28.838572,12.285728 L 31.482026,9.4247862 C 30.326212,8.2590214 29.786062,7.1953233 29.47539,6.4061979 C 29.744935,5.3152973 29.624576,4.1592425 29.057374,3.1286423 C 28.341117,1.8272629 26.848239,0.67523855 25.255418,0.11410037 C 25.221248,0.10140547 25.170771,0.095627845 25.135985,0.09386855 z" />
    <path
       style="fill:url(#linearGradient3087);fill-opacity:1;fill-rule:evenodd;stroke:none;display:inline;enable-background:new"
       id="path7379"
       d="M 25.138038,0.41578744 C 25.154274,0.42195734 25.144089,0.44329301 25.138038,0.44338106 L 27.091512,3.9972739 C 27.35504,4.4760455 27.164963,5.0414684 26.847328,5.5124996 C 26.526532,5.9881942 26.029473,6.4490965 25.382221,6.8073287 C 24.733582,7.166328 24.053234,7.3387401 23.48301,7.3583199 C 22.914037,7.3778914 22.379974,7.2129376 22.12643,6.7522295 L 20.172956,3.1707872 C 20.161756,3.1690262 20.143957,3.1725481 20.145781,3.1707872 C 20.163666,3.1513925 20.149253,3.1848925 20.145781,3.1983808 C 19.785543,4.7747708 19.972382,6.5967617 20.63415,7.7991568 C 21.539364,9.4438961 23.429277,10.229468 25.300783,9.8929228 C 27.163504,9.5543767 28.756228,7.9065603 29.15347,6.3390302 C 29.404304,5.3238134 29.297445,4.2327983 28.773627,3.2810295 C 28.113657,2.0819229 26.661817,0.95270842 25.137994,0.41587556 L 25.138038,0.41578744 L 25.138038,0.41578744 z" />
    <path
       style="fill:none;stroke:url(#linearGradient3089);stroke-width:0.55741966;stroke-linecap:round;stroke-linejoin:miter;stroke-miterlimit:4;stroke-dasharray:none;stroke-dashoffset:0.3612;stroke-opacity:1;display:inline;enable-background:new"
       id="path4756"
       d="M 26.111356,1.4089372 L 27.425121,3.7962925 C 27.795465,4.4691214 27.5267,5.2041899 27.166349,5.7385477 C 26.802273,6.2784247 26.270151,6.7491976 25.573907,7.1345437 C 24.874736,7.5215082 24.150072,7.7395374 23.503732,7.7617302 C 22.856533,7.7839626 22.13961,7.5843479 21.791857,6.9524572 L 20.438281,4.4639427 C 20.380458,5.6259694 20.51282,6.7949468 20.955825,7.5998756 C 21.772351,9.0834705 23.494275,9.811207 25.215607,9.5016672 C 25.341619,9.476392 25.47261,9.498948 25.593812,9.5421308 C 26.526783,9.8608264 27.691646,10.511379 29.037468,11.868791 L 29.674445,12.516209 L 31.645092,10.513258 L 31.028021,9.8860718 C 29.814635,8.6622491 29.149915,7.581788 28.798602,6.6894435 C 28.745644,6.5499061 28.743274,6.4097121 28.778696,6.2645752 C 29.006925,5.3408561 28.911672,4.3290554 28.440302,3.4725833 C 28.009488,2.6898259 27.101993,1.9752538 26.111356,1.4089372 z" />
    <path
       style="opacity:0.07999998;fill:#000000;fill-opacity:1;fill-rule:evenodd;stroke:none;display:inline;enable-background:new"
       id="rect7166"
       d="M 28.93794,9.056567 C 28.850735,9.0641548 28.773746,9.0818811 28.71898,9.1374943 L 28.320869,9.5623626 C 28.101805,9.784802 28.261465,10.33192 28.699074,10.776272 L 30.05265,12.131804 L 31.246981,10.897663 L 29.913311,9.5421308 C 29.585103,9.208867 29.199557,9.0337999 28.93794,9.056567 z" />
    <path
       style="opacity:0.3;fill:url(#radialGradient3091);fill-opacity:1;stroke:none"
       id="path6773"
       d="M 45.361781,27.260233 C 45.361781,27.665296 44.486787,27.993665 43.407427,27.993665 C 42.328067,27.993665 41.453073,27.665296 41.453073,27.260233 C 41.453073,26.855171 42.328067,26.526803 43.407427,26.526803 C 44.486787,26.526803 45.361781,26.855171 45.361781,27.260233 L 45.361781,27.260233 z" />
    <path
       style="fill:url(#linearGradient3093);fill-opacity:1;stroke:url(#linearGradient3095);stroke-width:0.79602152;stroke-linecap:round;stroke-linejoin:round;stroke-miterlimit:4;stroke-dasharray:none;stroke-dashoffset:0.7;stroke-opacity:1;display:inline;enable-background:new"
       id="path6899"
       d="M 28.557599,12.023827 L 42.106406,26.717401 C 42.995196,27.620151 44.516867,27.501963 45.533035,26.469839 C 46.549203,25.437711 46.665561,23.892147 45.776771,22.989398 L 31.310373,9.2278254 L 28.557586,12.023814 L 28.557599,12.023827 z M 42.780261,23.673836 C 43.285426,23.160739 44.110281,23.160739 44.615444,23.673836 C 45.120607,24.186933 45.120607,25.024741 44.615445,25.537837 C 44.11028,26.050932 43.285426,26.050934 42.780261,25.537837 C 42.275098,25.02474 42.275098,24.186933 42.780261,23.673836 L 42.780261,23.673836 z" />
    <path
       style="opacity:0.23106061;fill:url(#linearGradient3097);fill-opacity:1;stroke:none;display:inline"
       id="rect6533"
       d="M 31.065892,11.806156 C 31.419094,11.44774 32.065625,11.526741 32.515516,11.98329 L 41.873785,20.616124 C 42.323672,21.072676 41.976031,22.161034 41.622828,22.519451 C 41.269623,22.877871 40.197378,23.231371 39.74749,22.774821 L 31.24041,13.277224 C 30.790524,12.820671 30.712687,12.164577 31.065892,11.806156 z" />
  </g>
</svg>
