<?xml version="1.0" encoding="UTF-8" standalone="no"?>
<!-- Created with Inkscape (http://www.inkscape.org/) -->
<svg
   xmlns:dc="http://purl.org/dc/elements/1.1/"
   xmlns:cc="http://creativecommons.org/ns#"
   xmlns:rdf="http://www.w3.org/1999/02/22-rdf-syntax-ns#"
   xmlns:svg="http://www.w3.org/2000/svg"
   xmlns="http://www.w3.org/2000/svg"
   xmlns:xlink="http://www.w3.org/1999/xlink"
   xmlns:sodipodi="http://sodipodi.sourceforge.net/DTD/sodipodi-0.dtd"
   xmlns:inkscape="http://www.inkscape.org/namespaces/inkscape"
   version="1.0"
   width="24"
   height="24"
   id="svg11300"
   sodipodi:version="0.32"
   inkscape:version="0.46"
   sodipodi:docname="user.svg"
   inkscape:output_extension="org.inkscape.output.svg.inkscape"
   inkscape:export-filename="/home/alberto/.gvfs/sftp en 192.168.92.133/var/www/htdocs/repo/icons/source/icons/user.png"
   inkscape:export-xdpi="93.91304"
   inkscape:export-ydpi="93.91304">
  <metadata
     id="metadata55">
    <rdf:RDF>
      <cc:Work
         rdf:about="">
        <dc:format>image/svg+xml</dc:format>
        <dc:type
           rdf:resource="http://purl.org/dc/dcmitype/StillImage" />
      </cc:Work>
    </rdf:RDF>
  </metadata>
  <sodipodi:namedview
     inkscape:window-height="739"
     inkscape:window-width="1366"
     inkscape:pageshadow="2"
     inkscape:pageopacity="0.0"
     guidetolerance="10.0"
     gridtolerance="10.0"
     objecttolerance="10.0"
     borderopacity="1.0"
     bordercolor="#666666"
     pagecolor="#ffffff"
     id="base"
     showgrid="false"
     inkscape:zoom="20.583333"
     inkscape:cx="12"
     inkscape:cy="12"
     inkscape:window-x="0"
     inkscape:window-y="0"
     inkscape:current-layer="svg11300" />
  <defs
     id="defs3">
    <inkscape:perspective
       sodipodi:type="inkscape:persp3d"
       inkscape:vp_x="0 : 12 : 1"
       inkscape:vp_y="0 : 1000 : 0"
       inkscape:vp_z="24 : 12 : 1"
       inkscape:persp3d-origin="12 : 8 : 1"
       id="perspective57" />
    <linearGradient
       id="linearGradient3785">
      <stop
         id="stop3787"
         style="stop-color:#b8b8b8;stop-opacity:1"
         offset="0" />
      <stop
         id="stop3789"
         style="stop-color:#878787;stop-opacity:1"
         offset="1" />
    </linearGradient>
    <linearGradient
       id="linearGradient6954">
      <stop
         id="stop6960"
         style="stop-color:#f5f5f5;stop-opacity:1"
         offset="0" />
      <stop
         id="stop6962"
         style="stop-color:#d2d2d2;stop-opacity:1"
         offset="1" />
    </linearGradient>
    <linearGradient
       id="linearGradient3341">
      <stop
         id="stop3343"
         style="stop-color:white;stop-opacity:1"
         offset="0" />
      <stop
         id="stop3345"
         style="stop-color:white;stop-opacity:0"
         offset="1" />
    </linearGradient>
    <linearGradient
       id="linearGradient5060">
      <stop
         id="stop5062"
         style="stop-color:black;stop-opacity:1"
         offset="0" />
      <stop
         id="stop5064"
         style="stop-color:black;stop-opacity:0"
         offset="1" />
    </linearGradient>
    <radialGradient
       cx="30"
       cy="33.1875"
       r="4.6875"
       fx="30"
       fy="33.1875"
       id="radialGradient2922"
       xlink:href="#linearGradient5060"
       gradientUnits="userSpaceOnUse"
       gradientTransform="matrix(0.8149192,-3.8844793e-7,1.136461e-7,0.2534027,-9.9475804,6.5902095)" />
    <linearGradient
       x1="22"
       y1="39"
       x2="17"
       y2="37.4375"
       id="linearGradient2928"
       xlink:href="#linearGradient5060"
       gradientUnits="userSpaceOnUse"
       gradientTransform="matrix(0.75,0,0,0.4347826,-5.1276295,2.9173914)" />
    <radialGradient
       cx="26.375898"
       cy="12.31301"
       r="8"
       fx="26.375898"
       fy="12.31301"
       id="radialGradient2931"
       xlink:href="#linearGradient6954"
       gradientUnits="userSpaceOnUse"
       gradientTransform="matrix(0.8655204,-7.102871e-2,6.760608e-2,0.849074,-11.038912,-4.204803)" />
    <linearGradient
       x1="30"
       y1="5"
       x2="30"
       y2="44.678879"
       id="linearGradient2933"
       xlink:href="#linearGradient3785"
       gradientUnits="userSpaceOnUse"
       gradientTransform="matrix(0.5277033,0,0,0.5357324,-1.3310981,-1.4043014)" />
    <radialGradient
       cx="24.999998"
       cy="28.659998"
       r="16"
       fx="24.999998"
       fy="28.659998"
       id="radialGradient2939"
       xlink:href="#linearGradient6954"
       gradientUnits="userSpaceOnUse"
       gradientTransform="matrix(0.6774237,0,0,0.1928563,-5.0162555,9.9977318)" />
    <linearGradient
       x1="30"
       y1="25.084745"
       x2="30"
       y2="45"
       id="linearGradient2941"
       xlink:href="#linearGradient3785"
       gradientUnits="userSpaceOnUse"
       gradientTransform="matrix(0.5161324,0,0,0.5166711,-0.9839725,-0.491809)" />
    <radialGradient
       cx="32"
       cy="41.5"
       r="21"
       fx="32"
       fy="41.5"
       id="radialGradient2944"
       xlink:href="#linearGradient5060"
       gradientUnits="userSpaceOnUse"
       gradientTransform="matrix(0.452381,0,0,0.1428571,2.380949e-2,15.071429)" />
    <linearGradient
       x1="22"
       y1="39"
       x2="17"
       y2="37.4375"
       id="linearGradient3722"
       xlink:href="#linearGradient5060"
       gradientUnits="userSpaceOnUse"
       gradientTransform="matrix(-0.75,0,0,0.4347826,34.15,2.9173914)" />
    <linearGradient
       x1="30.00001"
       y1="6.333993"
       x2="30.00001"
       y2="24.913183"
       id="linearGradient3734"
       xlink:href="#linearGradient3341"
       gradientUnits="userSpaceOnUse"
       gradientTransform="matrix(0.5277033,0,0,0.5357324,-1.3310981,-1.4043014)" />
    <linearGradient
       x1="29.996229"
       y1="21.440447"
       x2="29.996229"
       y2="43.531425"
       id="linearGradient3756"
       xlink:href="#linearGradient3341"
       gradientUnits="userSpaceOnUse"
       gradientTransform="matrix(0.5161324,0,0,0.5166711,-0.9839725,-0.491809)" />
    <linearGradient
       id="linearGradient5060-9">
      <stop
         id="stop5062-9"
         style="stop-color:black;stop-opacity:1"
         offset="0" />
      <stop
         id="stop5064-1"
         style="stop-color:black;stop-opacity:0"
         offset="1" />
    </linearGradient>
    <linearGradient
       x1="29.998489"
       y1="6.7808113"
       x2="30"
       y2="26.2834"
       id="linearGradient4080"
       xlink:href="#linearGradient3341"
       gradientUnits="userSpaceOnUse"
       gradientTransform="matrix(0.3333458,0,0,0.3621533,-2.0003758,2.4813805)" />
    <linearGradient
       x1="29.968306"
       y1="21.68708"
       x2="30.000004"
       y2="43.308842"
       id="linearGradient4118"
       xlink:href="#linearGradient3341"
       gradientUnits="userSpaceOnUse"
       gradientTransform="matrix(0.4193574,0,0,0.419795,-4.5807222,1.8191637)" />
    <radialGradient
       cx="32"
       cy="41.5"
       r="21"
       fx="32"
       fy="41.5"
       id="radialGradient4148"
       xlink:href="#linearGradient5060-9"
       gradientUnits="userSpaceOnUse"
       gradientTransform="matrix(0.3571429,0,0,0.1428572,-3.9285714,13.072062)" />
    <linearGradient
       x1="22"
       y1="39"
       x2="17"
       y2="37.4375"
       id="linearGradient4168"
       xlink:href="#linearGradient5060"
       gradientUnits="userSpaceOnUse"
       gradientTransform="matrix(0.6195652,0,0,0.3591683,-8.1665637,4.2839318)" />
    <radialGradient
       cx="24.999998"
       cy="28.659998"
       r="16"
       fx="24.999998"
       fy="28.659998"
       id="radialGradient4170"
       xlink:href="#linearGradient6954"
       gradientUnits="userSpaceOnUse"
       gradientTransform="matrix(0.5504065,0,0,0.1566956,-7.8569507,10.341911)" />
    <linearGradient
       x1="30"
       y1="25.084745"
       x2="30"
       y2="45"
       id="linearGradient4172"
       xlink:href="#linearGradient3785"
       gradientUnits="userSpaceOnUse"
       gradientTransform="matrix(0.4193574,0,0,0.419795,-4.5807222,1.8191637)" />
    <linearGradient
       x1="30"
       y1="5"
       x2="30"
       y2="44.678879"
       id="linearGradient4174"
       xlink:href="#linearGradient3785"
       gradientUnits="userSpaceOnUse"
       gradientTransform="matrix(0.3333458,0,0,0.3621533,-2.0003758,2.4813805)" />
    <radialGradient
       cx="26.375898"
       cy="12.31301"
       r="8"
       fx="26.375898"
       fy="12.31301"
       id="radialGradient4176"
       xlink:href="#linearGradient6954"
       gradientUnits="userSpaceOnUse"
       gradientTransform="matrix(0.5467422,-4.801515e-2,4.270621e-2,0.5739711,-8.1327232,0.5882512)" />
  </defs>
  <g
     id="g3758">
    <path
       style="opacity:0.8;fill:url(#radialGradient2944);fill-opacity:1;stroke:none"
       id="path3823"
       d="M 24,21 C 24,22.656854 19.746705,24 14.5,24 C 9.2532949,24 5,22.656854 5,21 C 5,19.343146 9.2532949,18 14.5,18 C 19.746705,18 24,19.343146 24,21 z" />
    <path
       style="fill:url(#radialGradient2939);fill-opacity:1;stroke:url(#linearGradient2941);stroke-width:0.99989432;stroke-miterlimit:4;stroke-dasharray:none;stroke-opacity:1"
       id="path3766"
       d="M 12.177403,10.099947 C 12.414933,11.2246 12.547519,12.07532 12.354824,13.199973 C 10.852521,14.44767 7.0103206,15.008323 7.0160793,16.299998 L 6.4999472,20.175034 C 6.4999472,21.459107 10.081692,22.500053 14.5,22.500053 C 18.918307,22.500053 22.500053,21.459107 22.500053,20.175034 L 21.983919,16.299998 C 21.977819,15.1945 18.112926,14.491652 16.629046,13.199973 C 16.502295,12.156125 16.603186,11.143799 16.822595,10.099947 L 12.177403,10.099947 L 12.177403,10.099947 z" />
    <path
       style="fill:none;stroke:url(#linearGradient3756);stroke-width:0.99989432;stroke-miterlimit:4;stroke-opacity:1"
       id="path3742"
       d="M 13.21875,11.09375 C 13.30597,11.950461 13.55415,12.894757 13.17057,13.709607 C 12.528016,14.438072 11.575968,14.803433 10.70319,15.182322 C 9.3226847,15.510467 7.7137266,16 7.9252179,16.998373 C 7.7834779,18.061416 7.641739,19.124458 7.5,20.1875 C 7.8063993,20.348113 8.5809439,20.772404 9.125,20.875 C 11.645767,21.541947 14.29285,21.600367 16.879874,21.394516 C 18.391585,21.228304 19.968523,21.041851 21.3125,20.28125 C 21.647936,20.20763 21.419622,19.964839 21.427436,19.626335 C 21.295374,18.605057 21.163312,17.583778 21.03125,16.5625 C 20.443602,16.0598 19.639954,15.808981 18.924859,15.497923 C 17.842077,15.050624 16.673391,14.64492 15.837947,13.789929 C 15.44633,13.100371 15.676474,12.251186 15.730623,11.503439 C 15.990304,10.975089 15.507224,11.101536 15.177691,11.09375 C 14.52471,11.09375 13.87173,11.09375 13.21875,11.09375 z" />
    <path
       style="fill:url(#radialGradient2931);fill-opacity:1;stroke:url(#linearGradient2933);stroke-width:1.08445191;stroke-miterlimit:4;stroke-dasharray:none;stroke-opacity:1"
       id="path3764"
       d="M 14.5,1.5422262 C 12.314182,1.5422262 10.542226,3.2212162 10.542226,5.2923534 C 10.559356,6.058841 10.623776,6.9693996 11.069927,9.0424804 C 11.333779,9.846079 13.68721,11.98901 13.708444,12.256875 C 14.220145,12.52474 15.027702,12.52474 15.555408,12.256875 C 15.555408,11.98901 17.666221,9.846079 17.930072,9.0424804 C 18.432118,6.8879308 18.430845,6.0959521 18.457774,5.2923534 C 18.457774,3.2212162 16.685818,1.5422262 14.5,1.5422262 L 14.5,1.5422262 z" />
    <path
       style="opacity:0.5;fill:url(#linearGradient2928);fill-opacity:1;stroke:none"
       id="path3848"
       d="M 10.62237,21.7 C 8.8506083,20.838176 9.6954668,18.924844 9.8723695,17.7 C 9.1223696,18.569566 9.5000001,21 8,21 C 9,21.355621 9.6845389,21.59817 10.62237,21.7 L 10.62237,21.7 z" />
    <path
       style="opacity:0.3;fill:url(#radialGradient2922);fill-opacity:1;stroke:none"
       id="path3833"
       d="M 12,13.35048 C 12.366027,14.309818 13.343418,15 14.5,15 C 15.656582,15 16.633972,14.309818 17,13.35048 L 12,13.35048 L 12,13.35048 z" />
    <path
       style="opacity:0.5;fill:url(#linearGradient3722);fill-opacity:1;stroke:none"
       id="path3720"
       d="M 18.4,21.7 C 20.171762,20.838176 19.326903,18.924844 19.150001,17.7 C 19.9,18.569566 19.52237,21 21.02237,21 C 20.02237,21.355621 19.337831,21.59817 18.4,21.7 z" />
    <path
       style="fill:none;stroke:url(#linearGradient3734);stroke-width:1.08445191;stroke-miterlimit:4;stroke-dasharray:none;stroke-opacity:1"
       id="path3730"
       d="M 14.5,2.53125 C 12.833384,2.53125 11.5487,3.7615673 11.53125,5.25 C 11.531389,5.25624 11.531105,5.274997 11.53125,5.28125 C 11.54772,5.9893529 11.61734,6.8085295 12.03125,8.75 C 12.02615,8.71333 12.12796,8.9541393 12.34375,9.21875 C 12.576183,9.5037735 12.910353,9.8270812 13.21875,10.15625 C 13.527147,10.485419 13.817597,10.825225 14.0625,11.09375 C 14.15685,11.197198 14.234456,11.280655 14.3125,11.375 C 14.479311,11.41024 14.727749,11.40712 14.9375,11.375 C 14.99932,11.29103 15.052251,11.215569 15.125,11.125 C 15.343248,10.853293 15.598896,10.549007 15.875,10.21875 C 16.151104,9.8884927 16.444207,9.5373559 16.65625,9.25 C 16.853812,8.9822684 16.963562,8.746856 16.96875,8.75 C 17.429451,6.7502172 17.442485,6.0804279 17.46875,5.28125 C 17.46875,5.271068 17.468869,5.260159 17.46875,5.25 C 17.4513,3.7615673 16.166616,2.53125 14.5,2.53125 z" />
  </g>
</svg>
